<?xml version="1.0" encoding="UTF-8"?>
<svg xmlns="http://www.w3.org/2000/svg" xmlns:xlink="http://www.w3.org/1999/xlink" width="1920pt" height="1080pt" viewBox="0 0 1920 1080" version="1.1">
<defs>
<g>
<symbol overflow="visible" id="glyph0-0">
<path style="stroke:none;" d="M 0.21875 0.78125 L 0.21875 -3.125 L 2.4375 -3.125 L 2.4375 0.78125 Z M 0.46875 0.53125 L 2.1875 0.53125 L 2.1875 -2.875 L 0.46875 -2.875 Z "/>
</symbol>
<symbol overflow="visible" id="glyph0-1">
<path style="stroke:none;" d="M 0.203125 0 L 0.203125 -0.265625 L 0.625 -0.265625 L 0.625 -2.96875 L 0.203125 -2.96875 L 0.203125 -3.234375 L 3.09375 -3.234375 L 3.09375 -2.46875 L 2.796875 -2.46875 L 2.796875 -2.9375 L 1.453125 -2.9375 L 1.453125 -1.90625 L 2.28125 -1.90625 L 2.28125 -2.3125 L 2.578125 -2.3125 L 2.578125 -1.1875 L 2.28125 -1.1875 L 2.28125 -1.609375 L 1.453125 -1.609375 L 1.453125 -0.265625 L 1.96875 -0.265625 L 1.96875 0 Z "/>
</symbol>
<symbol overflow="visible" id="glyph0-2">
<path style="stroke:none;" d="M 2.390625 -2.328125 L 2.390625 -1.640625 L 2.140625 -1.640625 C 2.128906 -1.765625 2.09375 -1.851562 2.03125 -1.90625 C 1.976562 -1.96875 1.894531 -2 1.78125 -2 C 1.613281 -2 1.484375 -1.925781 1.390625 -1.78125 C 1.296875 -1.632812 1.25 -1.429688 1.25 -1.171875 L 1.25 -0.265625 L 1.671875 -0.265625 L 1.671875 0 L 0.15625 0 L 0.15625 -0.265625 L 0.484375 -0.265625 L 0.484375 -2.046875 L 0.125 -2.046875 L 0.125 -2.296875 L 1.25 -2.296875 L 1.25 -1.890625 C 1.320312 -2.054688 1.421875 -2.175781 1.546875 -2.25 C 1.671875 -2.320312 1.820312 -2.359375 2 -2.359375 C 2.039062 -2.359375 2.09375 -2.351562 2.15625 -2.34375 C 2.21875 -2.34375 2.296875 -2.335938 2.390625 -2.328125 Z "/>
</symbol>
<symbol overflow="visible" id="glyph0-3">
<path style="stroke:none;" d="M 2.4375 -1.421875 L 2.4375 -0.265625 L 2.78125 -0.265625 L 2.78125 0 L 1.671875 0 L 1.671875 -0.296875 C 1.578125 -0.171875 1.46875 -0.078125 1.34375 -0.015625 C 1.21875 0.0351562 1.078125 0.0625 0.921875 0.0625 C 0.679688 0.0625 0.5 0 0.375 -0.125 C 0.25 -0.25 0.1875 -0.429688 0.1875 -0.671875 C 0.1875 -0.929688 0.273438 -1.125 0.453125 -1.25 C 0.628906 -1.375 0.90625 -1.4375 1.28125 -1.4375 L 1.671875 -1.4375 L 1.671875 -1.578125 C 1.671875 -1.765625 1.625 -1.898438 1.53125 -1.984375 C 1.445312 -2.078125 1.316406 -2.125 1.140625 -2.125 C 0.984375 -2.125 0.863281 -2.09375 0.78125 -2.03125 C 0.695312 -1.96875 0.640625 -1.863281 0.609375 -1.71875 L 0.359375 -1.71875 L 0.359375 -2.21875 C 0.492188 -2.269531 0.632812 -2.304688 0.78125 -2.328125 C 0.925781 -2.347656 1.082031 -2.359375 1.25 -2.359375 C 1.664062 -2.359375 1.96875 -2.28125 2.15625 -2.125 C 2.34375 -1.976562 2.4375 -1.742188 2.4375 -1.421875 Z M 1.671875 -0.71875 L 1.671875 -1.1875 L 1.390625 -1.1875 C 1.242188 -1.1875 1.128906 -1.144531 1.046875 -1.0625 C 0.972656 -0.988281 0.9375 -0.878906 0.9375 -0.734375 C 0.9375 -0.585938 0.960938 -0.476562 1.015625 -0.40625 C 1.078125 -0.332031 1.164062 -0.296875 1.28125 -0.296875 C 1.394531 -0.296875 1.488281 -0.332031 1.5625 -0.40625 C 1.632812 -0.488281 1.671875 -0.59375 1.671875 -0.71875 Z "/>
</symbol>
<symbol overflow="visible" id="glyph0-4">
<path style="stroke:none;" d="M 2.6875 -1.921875 C 2.800781 -2.078125 2.914062 -2.1875 3.03125 -2.25 C 3.15625 -2.320312 3.300781 -2.359375 3.46875 -2.359375 C 3.738281 -2.359375 3.9375 -2.285156 4.0625 -2.140625 C 4.195312 -1.992188 4.265625 -1.769531 4.265625 -1.46875 L 4.265625 -0.265625 L 4.59375 -0.265625 L 4.59375 0 L 3.21875 0 L 3.21875 -0.265625 L 3.5 -0.265625 L 3.5 -1.34375 C 3.5 -1.632812 3.472656 -1.816406 3.421875 -1.890625 C 3.378906 -1.960938 3.300781 -2 3.1875 -2 C 3.050781 -2 2.941406 -1.945312 2.859375 -1.84375 C 2.785156 -1.738281 2.75 -1.59375 2.75 -1.40625 L 2.75 -0.265625 L 3.03125 -0.265625 L 3.03125 0 L 1.71875 0 L 1.71875 -0.265625 L 1.984375 -0.265625 L 1.984375 -1.34375 C 1.984375 -1.632812 1.960938 -1.816406 1.921875 -1.890625 C 1.878906 -1.960938 1.796875 -2 1.671875 -2 C 1.535156 -2 1.429688 -1.945312 1.359375 -1.84375 C 1.285156 -1.738281 1.25 -1.59375 1.25 -1.40625 L 1.25 -0.265625 L 1.515625 -0.265625 L 1.515625 0 L 0.15625 0 L 0.15625 -0.265625 L 0.484375 -0.265625 L 0.484375 -2.046875 L 0.15625 -2.046875 L 0.15625 -2.296875 L 1.25 -2.296875 L 1.25 -1.984375 C 1.332031 -2.117188 1.429688 -2.210938 1.546875 -2.265625 C 1.671875 -2.328125 1.8125 -2.359375 1.96875 -2.359375 C 2.15625 -2.359375 2.304688 -2.320312 2.421875 -2.25 C 2.535156 -2.1875 2.625 -2.078125 2.6875 -1.921875 Z "/>
</symbol>
<symbol overflow="visible" id="glyph0-5">
<path style="stroke:none;" d="M 1.78125 -1.296875 C 1.78125 -1.597656 1.75 -1.8125 1.6875 -1.9375 C 1.632812 -2.0625 1.539062 -2.125 1.40625 -2.125 C 1.269531 -2.125 1.171875 -2.0625 1.109375 -1.9375 C 1.054688 -1.820312 1.03125 -1.625 1.03125 -1.34375 L 1.03125 -1.296875 Z M 2.625 -1.046875 L 1.03125 -1.046875 L 1.03125 -1.03125 C 1.03125 -0.726562 1.078125 -0.507812 1.171875 -0.375 C 1.265625 -0.25 1.410156 -0.1875 1.609375 -0.1875 C 1.773438 -0.1875 1.90625 -0.226562 2 -0.3125 C 2.101562 -0.40625 2.171875 -0.535156 2.203125 -0.703125 L 2.5625 -0.703125 C 2.5 -0.441406 2.375 -0.25 2.1875 -0.125 C 2.007812 0 1.753906 0.0625 1.421875 0.0625 C 1.023438 0.0625 0.71875 -0.0390625 0.5 -0.25 C 0.289062 -0.457031 0.1875 -0.757812 0.1875 -1.15625 C 0.1875 -1.53125 0.296875 -1.820312 0.515625 -2.03125 C 0.734375 -2.25 1.035156 -2.359375 1.421875 -2.359375 C 1.796875 -2.359375 2.085938 -2.242188 2.296875 -2.015625 C 2.503906 -1.796875 2.613281 -1.472656 2.625 -1.046875 Z "/>
</symbol>
</g>
</defs>
<g id="surface132">
<g style="fill:rgb(100%,100%,100%);fill-opacity:1;">
  <use xlink:href="#glyph0-1" x="30" y="24.172852"/>
  <use xlink:href="#glyph0-2" x="33" y="24.172852"/>
  <use xlink:href="#glyph0-3" x="35" y="24.172852"/>
  <use xlink:href="#glyph0-4" x="38" y="24.172852"/>
  <use xlink:href="#glyph0-5" x="43" y="24.172852"/>
  <use xlink:href="#glyph0-2" x="46" y="24.172852"/>
</g>
</g>
</svg>
