<?xml version="1.0" encoding="UTF-8"?>
<svg xmlns="http://www.w3.org/2000/svg" xmlns:xlink="http://www.w3.org/1999/xlink" width="854pt" height="480pt" viewBox="0 0 854 480" version="1.1">
<defs>
<g>
<symbol overflow="visible" id="glyph0-0">
<path style="stroke:none;" d="M 0.15625 0.546875 L 0.15625 -2.15625 L 1.6875 -2.15625 L 1.6875 0.546875 Z M 0.328125 0.375 L 1.515625 0.375 L 1.515625 -1.984375 L 0.328125 -1.984375 Z "/>
</symbol>
<symbol overflow="visible" id="glyph0-1">
<path style="stroke:none;" d="M 1.046875 -1.9375 L 0.640625 -0.828125 L 1.453125 -0.828125 Z M 0.875 -2.234375 L 1.21875 -2.234375 L 2.0625 0 L 1.75 0 L 1.546875 -0.578125 L 0.546875 -0.578125 L 0.34375 0 L 0.03125 0 Z "/>
</symbol>
<symbol overflow="visible" id="glyph0-2">
<path style="stroke:none;" d="M 0.296875 -2.234375 L 0.609375 -2.234375 L 0.609375 0 L 0.296875 0 Z "/>
</symbol>
<symbol overflow="visible" id="glyph0-3">
<path style="stroke:none;" d="M 0.15625 -0.96875 L 0.953125 -0.96875 L 0.953125 -0.71875 L 0.15625 -0.71875 Z "/>
</symbol>
<symbol overflow="visible" id="glyph0-4">
<path style="stroke:none;" d="M 0.9375 -1.484375 C 0.789062 -1.484375 0.671875 -1.425781 0.578125 -1.3125 C 0.492188 -1.195312 0.453125 -1.035156 0.453125 -0.828125 C 0.453125 -0.628906 0.492188 -0.472656 0.578125 -0.359375 C 0.671875 -0.242188 0.789062 -0.1875 0.9375 -0.1875 C 1.082031 -0.1875 1.195312 -0.242188 1.28125 -0.359375 C 1.375 -0.472656 1.421875 -0.628906 1.421875 -0.828125 C 1.421875 -1.035156 1.375 -1.195312 1.28125 -1.3125 C 1.195312 -1.425781 1.082031 -1.484375 0.9375 -1.484375 Z M 0.9375 -1.71875 C 1.175781 -1.71875 1.363281 -1.640625 1.5 -1.484375 C 1.632812 -1.328125 1.703125 -1.109375 1.703125 -0.828125 C 1.703125 -0.554688 1.632812 -0.34375 1.5 -0.1875 C 1.363281 -0.03125 1.175781 0.046875 0.9375 0.046875 C 0.695312 0.046875 0.507812 -0.03125 0.375 -0.1875 C 0.238281 -0.34375 0.171875 -0.554688 0.171875 -0.828125 C 0.171875 -1.109375 0.238281 -1.328125 0.375 -1.484375 C 0.507812 -1.640625 0.695312 -1.71875 0.9375 -1.71875 Z "/>
</symbol>
<symbol overflow="visible" id="glyph0-5">
<path style="stroke:none;" d="M 0.5625 -0.25 L 0.5625 0.640625 L 0.28125 0.640625 L 0.28125 -1.671875 L 0.5625 -1.671875 L 0.5625 -1.421875 C 0.613281 -1.515625 0.679688 -1.585938 0.765625 -1.640625 C 0.859375 -1.691406 0.96875 -1.71875 1.09375 -1.71875 C 1.289062 -1.71875 1.453125 -1.632812 1.578125 -1.46875 C 1.710938 -1.3125 1.78125 -1.097656 1.78125 -0.828125 C 1.78125 -0.566406 1.710938 -0.351562 1.578125 -0.1875 C 1.453125 -0.03125 1.289062 0.046875 1.09375 0.046875 C 0.96875 0.046875 0.859375 0.0195312 0.765625 -0.03125 C 0.679688 -0.0820312 0.613281 -0.15625 0.5625 -0.25 Z M 1.484375 -0.828125 C 1.484375 -1.035156 1.441406 -1.195312 1.359375 -1.3125 C 1.273438 -1.425781 1.160156 -1.484375 1.015625 -1.484375 C 0.867188 -1.484375 0.753906 -1.425781 0.671875 -1.3125 C 0.597656 -1.195312 0.5625 -1.035156 0.5625 -0.828125 C 0.5625 -0.628906 0.597656 -0.472656 0.671875 -0.359375 C 0.753906 -0.242188 0.867188 -0.1875 1.015625 -0.1875 C 1.160156 -0.1875 1.273438 -0.242188 1.359375 -0.359375 C 1.441406 -0.472656 1.484375 -0.628906 1.484375 -0.828125 Z "/>
</symbol>
<symbol overflow="visible" id="glyph0-6">
<path style="stroke:none;" d="M 0.5625 -2.15625 L 0.5625 -1.671875 L 1.125 -1.671875 L 1.125 -1.46875 L 0.5625 -1.46875 L 0.5625 -0.546875 C 0.5625 -0.410156 0.578125 -0.320312 0.609375 -0.28125 C 0.648438 -0.25 0.726562 -0.234375 0.84375 -0.234375 L 1.125 -0.234375 L 1.125 0 L 0.84375 0 C 0.632812 0 0.488281 -0.0351562 0.40625 -0.109375 C 0.320312 -0.191406 0.28125 -0.335938 0.28125 -0.546875 L 0.28125 -1.46875 L 0.078125 -1.46875 L 0.078125 -1.671875 L 0.28125 -1.671875 L 0.28125 -2.15625 Z "/>
</symbol>
<symbol overflow="visible" id="glyph0-7">
<path style="stroke:none;" d="M 0.28125 -1.671875 L 0.5625 -1.671875 L 0.5625 0 L 0.28125 0 Z M 0.28125 -2.328125 L 0.5625 -2.328125 L 0.5625 -1.984375 L 0.28125 -1.984375 Z "/>
</symbol>
<symbol overflow="visible" id="glyph0-8">
<path style="stroke:none;" d="M 1.59375 -1.359375 C 1.664062 -1.472656 1.75 -1.5625 1.84375 -1.625 C 1.9375 -1.6875 2.046875 -1.71875 2.171875 -1.71875 C 2.347656 -1.71875 2.484375 -1.65625 2.578125 -1.53125 C 2.671875 -1.40625 2.71875 -1.234375 2.71875 -1.015625 L 2.71875 0 L 2.453125 0 L 2.453125 -1 C 2.453125 -1.164062 2.421875 -1.285156 2.359375 -1.359375 C 2.304688 -1.429688 2.21875 -1.46875 2.09375 -1.46875 C 1.957031 -1.46875 1.847656 -1.421875 1.765625 -1.328125 C 1.679688 -1.234375 1.640625 -1.109375 1.640625 -0.953125 L 1.640625 0 L 1.359375 0 L 1.359375 -1 C 1.359375 -1.164062 1.328125 -1.285156 1.265625 -1.359375 C 1.210938 -1.429688 1.128906 -1.46875 1.015625 -1.46875 C 0.867188 -1.46875 0.753906 -1.421875 0.671875 -1.328125 C 0.597656 -1.234375 0.5625 -1.109375 0.5625 -0.953125 L 0.5625 0 L 0.28125 0 L 0.28125 -1.671875 L 0.5625 -1.671875 L 0.5625 -1.421875 C 0.625 -1.515625 0.695312 -1.585938 0.78125 -1.640625 C 0.863281 -1.691406 0.96875 -1.71875 1.09375 -1.71875 C 1.21875 -1.71875 1.320312 -1.6875 1.40625 -1.625 C 1.488281 -1.5625 1.550781 -1.472656 1.59375 -1.359375 Z "/>
</symbol>
<symbol overflow="visible" id="glyph0-9">
<path style="stroke:none;" d="M 0.171875 -1.671875 L 1.46875 -1.671875 L 1.46875 -1.421875 L 0.4375 -0.21875 L 1.46875 -0.21875 L 1.46875 0 L 0.125 0 L 0.125 -0.25 L 1.171875 -1.453125 L 0.171875 -1.453125 Z "/>
</symbol>
<symbol overflow="visible" id="glyph0-10">
<path style="stroke:none;" d="M 1.71875 -0.90625 L 1.71875 -0.765625 L 0.453125 -0.765625 C 0.460938 -0.578125 0.519531 -0.429688 0.625 -0.328125 C 0.726562 -0.234375 0.867188 -0.1875 1.046875 -0.1875 C 1.160156 -0.1875 1.265625 -0.195312 1.359375 -0.21875 C 1.460938 -0.25 1.5625 -0.289062 1.65625 -0.34375 L 1.65625 -0.078125 C 1.5625 -0.0351562 1.460938 -0.00390625 1.359375 0.015625 C 1.253906 0.0351562 1.144531 0.046875 1.03125 0.046875 C 0.769531 0.046875 0.5625 -0.03125 0.40625 -0.1875 C 0.25 -0.34375 0.171875 -0.554688 0.171875 -0.828125 C 0.171875 -1.097656 0.242188 -1.3125 0.390625 -1.46875 C 0.535156 -1.632812 0.734375 -1.71875 0.984375 -1.71875 C 1.210938 -1.71875 1.390625 -1.644531 1.515625 -1.5 C 1.648438 -1.351562 1.71875 -1.15625 1.71875 -0.90625 Z M 1.453125 -0.984375 C 1.441406 -1.140625 1.394531 -1.257812 1.3125 -1.34375 C 1.238281 -1.4375 1.132812 -1.484375 1 -1.484375 C 0.84375 -1.484375 0.71875 -1.4375 0.625 -1.34375 C 0.53125 -1.257812 0.476562 -1.140625 0.46875 -0.984375 Z "/>
</symbol>
<symbol overflow="visible" id="glyph0-11">
<path style="stroke:none;" d="M 1.390625 -1.421875 L 1.390625 -2.328125 L 1.671875 -2.328125 L 1.671875 0 L 1.390625 0 L 1.390625 -0.25 C 1.328125 -0.15625 1.253906 -0.0820312 1.171875 -0.03125 C 1.085938 0.0195312 0.984375 0.046875 0.859375 0.046875 C 0.648438 0.046875 0.484375 -0.03125 0.359375 -0.1875 C 0.234375 -0.351562 0.171875 -0.566406 0.171875 -0.828125 C 0.171875 -1.097656 0.234375 -1.3125 0.359375 -1.46875 C 0.484375 -1.632812 0.648438 -1.71875 0.859375 -1.71875 C 0.984375 -1.71875 1.085938 -1.691406 1.171875 -1.640625 C 1.253906 -1.585938 1.328125 -1.515625 1.390625 -1.421875 Z M 0.453125 -0.828125 C 0.453125 -0.628906 0.492188 -0.472656 0.578125 -0.359375 C 0.660156 -0.242188 0.773438 -0.1875 0.921875 -0.1875 C 1.066406 -0.1875 1.179688 -0.242188 1.265625 -0.359375 C 1.347656 -0.472656 1.390625 -0.628906 1.390625 -0.828125 C 1.390625 -1.035156 1.347656 -1.195312 1.265625 -1.3125 C 1.179688 -1.425781 1.066406 -1.484375 0.921875 -1.484375 C 0.773438 -1.484375 0.660156 -1.425781 0.578125 -1.3125 C 0.492188 -1.195312 0.453125 -1.035156 0.453125 -0.828125 Z "/>
</symbol>
<symbol overflow="visible" id="glyph0-12">
<path style="stroke:none;" d=""/>
</symbol>
<symbol overflow="visible" id="glyph0-13">
<path style="stroke:none;" d="M 1.265625 -1.421875 C 1.234375 -1.429688 1.195312 -1.441406 1.15625 -1.453125 C 1.125 -1.460938 1.082031 -1.46875 1.03125 -1.46875 C 0.875 -1.46875 0.753906 -1.414062 0.671875 -1.3125 C 0.597656 -1.21875 0.5625 -1.070312 0.5625 -0.875 L 0.5625 0 L 0.28125 0 L 0.28125 -1.671875 L 0.5625 -1.671875 L 0.5625 -1.421875 C 0.613281 -1.515625 0.6875 -1.585938 0.78125 -1.640625 C 0.875 -1.691406 0.988281 -1.71875 1.125 -1.71875 C 1.132812 -1.71875 1.148438 -1.710938 1.171875 -1.703125 C 1.203125 -1.703125 1.226562 -1.703125 1.25 -1.703125 Z "/>
</symbol>
<symbol overflow="visible" id="glyph0-14">
<path style="stroke:none;" d="M 0.09375 -1.671875 L 0.390625 -1.671875 L 0.90625 -0.265625 L 1.421875 -1.671875 L 1.71875 -1.671875 L 1.09375 0 L 0.71875 0 Z "/>
</symbol>
<symbol overflow="visible" id="glyph0-15">
<path style="stroke:none;" d="M 1.5 -1.609375 L 1.5 -1.359375 C 1.414062 -1.398438 1.332031 -1.429688 1.25 -1.453125 C 1.175781 -1.472656 1.097656 -1.484375 1.015625 -1.484375 C 0.835938 -1.484375 0.695312 -1.425781 0.59375 -1.3125 C 0.5 -1.195312 0.453125 -1.035156 0.453125 -0.828125 C 0.453125 -0.628906 0.5 -0.472656 0.59375 -0.359375 C 0.695312 -0.242188 0.835938 -0.1875 1.015625 -0.1875 C 1.097656 -0.1875 1.175781 -0.195312 1.25 -0.21875 C 1.332031 -0.238281 1.414062 -0.269531 1.5 -0.3125 L 1.5 -0.0625 C 1.414062 -0.03125 1.332031 -0.00390625 1.25 0.015625 C 1.164062 0.0351562 1.082031 0.046875 1 0.046875 C 0.738281 0.046875 0.535156 -0.03125 0.390625 -0.1875 C 0.242188 -0.351562 0.171875 -0.566406 0.171875 -0.828125 C 0.171875 -1.109375 0.242188 -1.328125 0.390625 -1.484375 C 0.546875 -1.640625 0.753906 -1.71875 1.015625 -1.71875 C 1.097656 -1.71875 1.175781 -1.707031 1.25 -1.6875 C 1.332031 -1.664062 1.414062 -1.640625 1.5 -1.609375 Z "/>
</symbol>
</g>
</defs>
<g id="surface242">
<g style="fill:rgb(58.039216%,63.921569%,72.156863%);fill-opacity:1;">
  <use xlink:href="#glyph0-1" x="30" y="22.835938"/>
  <use xlink:href="#glyph0-2" x="32" y="22.835938"/>
  <use xlink:href="#glyph0-3" x="33" y="22.835938"/>
  <use xlink:href="#glyph0-4" x="34" y="22.835938"/>
  <use xlink:href="#glyph0-5" x="36" y="22.835938"/>
  <use xlink:href="#glyph0-6" x="38" y="22.835938"/>
  <use xlink:href="#glyph0-7" x="39" y="22.835938"/>
  <use xlink:href="#glyph0-8" x="40" y="22.835938"/>
  <use xlink:href="#glyph0-7" x="43" y="22.835938"/>
  <use xlink:href="#glyph0-9" x="44" y="22.835938"/>
  <use xlink:href="#glyph0-10" x="46" y="22.835938"/>
  <use xlink:href="#glyph0-11" x="48" y="22.835938"/>
  <use xlink:href="#glyph0-12" x="50" y="22.835938"/>
</g>
<g style="fill:rgb(58.039216%,63.921569%,72.156863%);fill-opacity:1;">
  <use xlink:href="#glyph0-5" x="30" y="26.960938"/>
  <use xlink:href="#glyph0-10" x="32" y="26.960938"/>
  <use xlink:href="#glyph0-13" x="34" y="26.960938"/>
  <use xlink:href="#glyph0-12" x="35" y="26.960938"/>
  <use xlink:href="#glyph0-11" x="36" y="26.960938"/>
  <use xlink:href="#glyph0-10" x="38" y="26.960938"/>
  <use xlink:href="#glyph0-14" x="40" y="26.960938"/>
  <use xlink:href="#glyph0-7" x="42" y="26.960938"/>
  <use xlink:href="#glyph0-15" x="43" y="26.960938"/>
  <use xlink:href="#glyph0-10" x="45" y="26.960938"/>
</g>
</g>
</svg>
