<?xml version="1.0" encoding="UTF-8"?>
<svg xmlns="http://www.w3.org/2000/svg" xmlns:xlink="http://www.w3.org/1999/xlink" width="854pt" height="480pt" viewBox="0 0 854 480" version="1.1">
<defs>
<g>
<symbol overflow="visible" id="glyph0-0">
<path style="stroke:none;" d="M 0.25 0.890625 L 0.25 -3.53125 L 2.75 -3.53125 L 2.75 0.890625 Z M 0.53125 0.609375 L 2.46875 0.609375 L 2.46875 -3.25 L 0.53125 -3.25 Z "/>
</symbol>
<symbol overflow="visible" id="glyph0-1">
<path style="stroke:none;" d="M 3 -3.53125 L 3 -2.765625 C 2.800781 -2.847656 2.601562 -2.910156 2.40625 -2.953125 C 2.21875 -3.003906 2.039062 -3.03125 1.875 -3.03125 C 1.644531 -3.03125 1.476562 -3 1.375 -2.9375 C 1.269531 -2.875 1.21875 -2.78125 1.21875 -2.65625 C 1.21875 -2.550781 1.25 -2.472656 1.3125 -2.421875 C 1.382812 -2.367188 1.519531 -2.320312 1.71875 -2.28125 L 2.109375 -2.203125 C 2.515625 -2.117188 2.800781 -1.992188 2.96875 -1.828125 C 3.144531 -1.660156 3.234375 -1.425781 3.234375 -1.125 C 3.234375 -0.71875 3.113281 -0.414062 2.875 -0.21875 C 2.632812 -0.0195312 2.269531 0.078125 1.78125 0.078125 C 1.550781 0.078125 1.316406 0.0507812 1.078125 0 C 0.847656 -0.0390625 0.617188 -0.101562 0.390625 -0.1875 L 0.390625 -0.984375 C 0.617188 -0.859375 0.84375 -0.765625 1.0625 -0.703125 C 1.28125 -0.640625 1.488281 -0.609375 1.6875 -0.609375 C 1.894531 -0.609375 2.050781 -0.640625 2.15625 -0.703125 C 2.269531 -0.773438 2.328125 -0.875 2.328125 -1 C 2.328125 -1.113281 2.289062 -1.203125 2.21875 -1.265625 C 2.144531 -1.328125 2 -1.382812 1.78125 -1.4375 L 1.40625 -1.515625 C 1.039062 -1.597656 0.773438 -1.722656 0.609375 -1.890625 C 0.441406 -2.054688 0.359375 -2.285156 0.359375 -2.578125 C 0.359375 -2.941406 0.472656 -3.222656 0.703125 -3.421875 C 0.941406 -3.617188 1.28125 -3.71875 1.71875 -3.71875 C 1.914062 -3.71875 2.117188 -3.703125 2.328125 -3.671875 C 2.546875 -3.640625 2.769531 -3.59375 3 -3.53125 Z "/>
</symbol>
<symbol overflow="visible" id="glyph0-2">
<path style="stroke:none;" d="M 1.296875 -0.390625 L 1.296875 1.046875 L 0.421875 1.046875 L 0.421875 -2.734375 L 1.296875 -2.734375 L 1.296875 -2.328125 C 1.410156 -2.492188 1.539062 -2.613281 1.6875 -2.6875 C 1.84375 -2.757812 2.015625 -2.796875 2.203125 -2.796875 C 2.535156 -2.796875 2.8125 -2.660156 3.03125 -2.390625 C 3.25 -2.128906 3.359375 -1.785156 3.359375 -1.359375 C 3.359375 -0.941406 3.25 -0.597656 3.03125 -0.328125 C 2.8125 -0.0546875 2.535156 0.078125 2.203125 0.078125 C 2.015625 0.078125 1.84375 0.0390625 1.6875 -0.03125 C 1.539062 -0.113281 1.410156 -0.234375 1.296875 -0.390625 Z M 1.875 -2.171875 C 1.6875 -2.171875 1.539062 -2.097656 1.4375 -1.953125 C 1.34375 -1.816406 1.296875 -1.617188 1.296875 -1.359375 C 1.296875 -1.109375 1.34375 -0.910156 1.4375 -0.765625 C 1.539062 -0.628906 1.6875 -0.5625 1.875 -0.5625 C 2.0625 -0.5625 2.203125 -0.628906 2.296875 -0.765625 C 2.398438 -0.898438 2.453125 -1.097656 2.453125 -1.359375 C 2.453125 -1.617188 2.398438 -1.816406 2.296875 -1.953125 C 2.203125 -2.097656 2.0625 -2.171875 1.875 -2.171875 Z "/>
</symbol>
<symbol overflow="visible" id="glyph0-3">
<path style="stroke:none;" d="M 0.421875 -2.734375 L 1.296875 -2.734375 L 1.296875 0 L 0.421875 0 Z M 0.421875 -3.796875 L 1.296875 -3.796875 L 1.296875 -3.09375 L 0.421875 -3.09375 Z "/>
</symbol>
<symbol overflow="visible" id="glyph0-4">
<path style="stroke:none;" d="M 3.171875 -1.671875 L 3.171875 0 L 2.296875 0 L 2.296875 -1.28125 C 2.296875 -1.507812 2.289062 -1.664062 2.28125 -1.75 C 2.269531 -1.84375 2.25 -1.910156 2.21875 -1.953125 C 2.1875 -2.015625 2.140625 -2.0625 2.078125 -2.09375 C 2.023438 -2.125 1.957031 -2.140625 1.875 -2.140625 C 1.695312 -2.140625 1.554688 -2.066406 1.453125 -1.921875 C 1.347656 -1.785156 1.296875 -1.59375 1.296875 -1.34375 L 1.296875 0 L 0.421875 0 L 0.421875 -2.734375 L 1.296875 -2.734375 L 1.296875 -2.328125 C 1.421875 -2.492188 1.554688 -2.613281 1.703125 -2.6875 C 1.859375 -2.757812 2.023438 -2.796875 2.203125 -2.796875 C 2.515625 -2.796875 2.753906 -2.695312 2.921875 -2.5 C 3.085938 -2.3125 3.171875 -2.035156 3.171875 -1.671875 Z "/>
</symbol>
</g>
</defs>
<g id="surface117">
<g style="fill:rgb(100%,100%,100%);fill-opacity:1;">
  <use xlink:href="#glyph0-1" x="30" y="24.641602"/>
  <use xlink:href="#glyph0-2" x="34" y="24.641602"/>
  <use xlink:href="#glyph0-3" x="38" y="24.641602"/>
  <use xlink:href="#glyph0-4" x="40" y="24.641602"/>
</g>
</g>
</svg>
