<?xml version="1.0" encoding="UTF-8"?>
<svg xmlns="http://www.w3.org/2000/svg" xmlns:xlink="http://www.w3.org/1999/xlink" width="854pt" height="480pt" viewBox="0 0 854 480" version="1.1">
<defs>
<g>
<symbol overflow="visible" id="glyph0-0">
<path style="stroke:none;" d="M 0.21875 0.78125 L 0.21875 -3.125 L 2.4375 -3.125 L 2.4375 0.78125 Z M 0.46875 0.53125 L 2.1875 0.53125 L 2.1875 -2.875 L 0.46875 -2.875 Z "/>
</symbol>
<symbol overflow="visible" id="glyph0-1">
<path style="stroke:none;" d="M 0.4375 -3.234375 L 2.484375 -3.234375 L 2.484375 -2.859375 L 0.875 -2.859375 L 0.875 -1.90625 L 2.40625 -1.90625 L 2.40625 -1.546875 L 0.875 -1.546875 L 0.875 -0.375 L 2.515625 -0.375 L 2.515625 0 L 0.4375 0 Z "/>
</symbol>
<symbol overflow="visible" id="glyph0-2">
<path style="stroke:none;" d="M 2.015625 -2.0625 L 2.015625 -3.375 L 2.40625 -3.375 L 2.40625 0 L 2.015625 0 L 2.015625 -0.359375 C 1.929688 -0.210938 1.820312 -0.101562 1.6875 -0.03125 C 1.5625 0.03125 1.410156 0.0625 1.234375 0.0625 C 0.941406 0.0625 0.703125 -0.0507812 0.515625 -0.28125 C 0.335938 -0.519531 0.25 -0.832031 0.25 -1.21875 C 0.25 -1.59375 0.335938 -1.894531 0.515625 -2.125 C 0.703125 -2.363281 0.941406 -2.484375 1.234375 -2.484375 C 1.410156 -2.484375 1.5625 -2.445312 1.6875 -2.375 C 1.820312 -2.3125 1.929688 -2.207031 2.015625 -2.0625 Z M 0.65625 -1.21875 C 0.65625 -0.914062 0.710938 -0.679688 0.828125 -0.515625 C 0.953125 -0.347656 1.117188 -0.265625 1.328125 -0.265625 C 1.546875 -0.265625 1.710938 -0.347656 1.828125 -0.515625 C 1.953125 -0.679688 2.015625 -0.914062 2.015625 -1.21875 C 2.015625 -1.507812 1.953125 -1.738281 1.828125 -1.90625 C 1.710938 -2.070312 1.546875 -2.15625 1.328125 -2.15625 C 1.117188 -2.15625 0.953125 -2.070312 0.828125 -1.90625 C 0.710938 -1.738281 0.65625 -1.507812 0.65625 -1.21875 Z "/>
</symbol>
<symbol overflow="visible" id="glyph0-3">
<path style="stroke:none;" d="M 0.421875 -2.421875 L 0.8125 -2.421875 L 0.8125 0 L 0.421875 0 Z M 0.421875 -3.375 L 0.8125 -3.375 L 0.8125 -2.859375 L 0.421875 -2.859375 Z "/>
</symbol>
<symbol overflow="visible" id="glyph0-4">
<path style="stroke:none;" d="M 0.8125 -3.109375 L 0.8125 -2.421875 L 1.640625 -2.421875 L 1.640625 -2.109375 L 0.8125 -2.109375 L 0.8125 -0.796875 C 0.8125 -0.597656 0.835938 -0.46875 0.890625 -0.40625 C 0.941406 -0.351562 1.050781 -0.328125 1.21875 -0.328125 L 1.640625 -0.328125 L 1.640625 0 L 1.21875 0 C 0.914062 0 0.703125 -0.0546875 0.578125 -0.171875 C 0.460938 -0.285156 0.40625 -0.492188 0.40625 -0.796875 L 0.40625 -2.109375 L 0.125 -2.109375 L 0.125 -2.421875 L 0.40625 -2.421875 L 0.40625 -3.109375 Z "/>
</symbol>
<symbol overflow="visible" id="glyph0-5">
<path style="stroke:none;" d="M 1.359375 -2.140625 C 1.140625 -2.140625 0.96875 -2.054688 0.84375 -1.890625 C 0.726562 -1.722656 0.671875 -1.5 0.671875 -1.21875 C 0.671875 -0.925781 0.726562 -0.695312 0.84375 -0.53125 C 0.96875 -0.363281 1.140625 -0.28125 1.359375 -0.28125 C 1.566406 -0.28125 1.734375 -0.363281 1.859375 -0.53125 C 1.984375 -0.695312 2.046875 -0.925781 2.046875 -1.21875 C 2.046875 -1.5 1.984375 -1.722656 1.859375 -1.890625 C 1.734375 -2.054688 1.566406 -2.140625 1.359375 -2.140625 Z M 1.359375 -2.484375 C 1.703125 -2.484375 1.972656 -2.367188 2.171875 -2.140625 C 2.367188 -1.921875 2.46875 -1.613281 2.46875 -1.21875 C 2.46875 -0.8125 2.367188 -0.492188 2.171875 -0.265625 C 1.972656 -0.046875 1.703125 0.0625 1.359375 0.0625 C 1.015625 0.0625 0.742188 -0.046875 0.546875 -0.265625 C 0.347656 -0.492188 0.25 -0.8125 0.25 -1.21875 C 0.25 -1.613281 0.347656 -1.921875 0.546875 -2.140625 C 0.742188 -2.367188 1.015625 -2.484375 1.359375 -2.484375 Z "/>
</symbol>
<symbol overflow="visible" id="glyph0-6">
<path style="stroke:none;" d="M 1.828125 -2.046875 C 1.773438 -2.078125 1.722656 -2.097656 1.671875 -2.109375 C 1.617188 -2.117188 1.5625 -2.125 1.5 -2.125 C 1.28125 -2.125 1.109375 -2.050781 0.984375 -1.90625 C 0.859375 -1.757812 0.796875 -1.550781 0.796875 -1.28125 L 0.796875 0 L 0.40625 0 L 0.40625 -2.421875 L 0.796875 -2.421875 L 0.796875 -2.046875 C 0.878906 -2.191406 0.988281 -2.300781 1.125 -2.375 C 1.257812 -2.445312 1.425781 -2.484375 1.625 -2.484375 C 1.644531 -2.484375 1.671875 -2.476562 1.703125 -2.46875 C 1.742188 -2.46875 1.785156 -2.46875 1.828125 -2.46875 Z "/>
</symbol>
<symbol overflow="visible" id="glyph0-7">
<path style="stroke:none;" d="M 1.96875 -2.359375 L 1.96875 -1.984375 C 1.851562 -2.035156 1.734375 -2.078125 1.609375 -2.109375 C 1.492188 -2.140625 1.367188 -2.15625 1.234375 -2.15625 C 1.035156 -2.15625 0.882812 -2.125 0.78125 -2.0625 C 0.6875 -2 0.640625 -1.90625 0.640625 -1.78125 C 0.640625 -1.695312 0.675781 -1.625 0.75 -1.5625 C 0.820312 -1.507812 0.960938 -1.460938 1.171875 -1.421875 L 1.3125 -1.390625 C 1.59375 -1.328125 1.789062 -1.238281 1.90625 -1.125 C 2.03125 -1.019531 2.09375 -0.867188 2.09375 -0.671875 C 2.09375 -0.441406 2.003906 -0.257812 1.828125 -0.125 C 1.648438 0 1.40625 0.0625 1.09375 0.0625 C 0.957031 0.0625 0.816406 0.046875 0.671875 0.015625 C 0.535156 -0.00390625 0.390625 -0.0390625 0.234375 -0.09375 L 0.234375 -0.5 C 0.390625 -0.425781 0.535156 -0.367188 0.671875 -0.328125 C 0.816406 -0.285156 0.957031 -0.265625 1.09375 -0.265625 C 1.28125 -0.265625 1.425781 -0.296875 1.53125 -0.359375 C 1.632812 -0.429688 1.6875 -0.523438 1.6875 -0.640625 C 1.6875 -0.742188 1.648438 -0.820312 1.578125 -0.875 C 1.503906 -0.9375 1.34375 -1 1.09375 -1.0625 L 0.953125 -1.09375 C 0.710938 -1.144531 0.535156 -1.222656 0.421875 -1.328125 C 0.316406 -1.429688 0.265625 -1.578125 0.265625 -1.765625 C 0.265625 -1.992188 0.34375 -2.171875 0.5 -2.296875 C 0.664062 -2.421875 0.894531 -2.484375 1.1875 -2.484375 C 1.332031 -2.484375 1.46875 -2.472656 1.59375 -2.453125 C 1.726562 -2.429688 1.851562 -2.398438 1.96875 -2.359375 Z "/>
</symbol>
</g>
</defs>
<g id="surface277">
<g style="fill:rgb(39.215686%,45.490196%,54.509804%);fill-opacity:1;">
  <use xlink:href="#glyph0-1" x="30" y="24.125"/>
  <use xlink:href="#glyph0-2" x="33" y="24.125"/>
  <use xlink:href="#glyph0-3" x="36" y="24.125"/>
  <use xlink:href="#glyph0-4" x="37" y="24.125"/>
  <use xlink:href="#glyph0-5" x="39" y="24.125"/>
  <use xlink:href="#glyph0-6" x="42" y="24.125"/>
  <use xlink:href="#glyph0-7" x="44" y="24.125"/>
</g>
</g>
</svg>
