<?xml version="1.0" encoding="UTF-8"?>
<svg xmlns="http://www.w3.org/2000/svg" xmlns:xlink="http://www.w3.org/1999/xlink" width="854pt" height="480pt" viewBox="0 0 854 480" version="1.1">
<defs>
<g>
<symbol overflow="visible" id="glyph0-0">
<path style="stroke:none;" d="M 0.296875 1.078125 L 0.296875 -4.3125 L 3.359375 -4.3125 L 3.359375 1.078125 Z M 0.640625 0.734375 L 3.015625 0.734375 L 3.015625 -3.96875 L 0.640625 -3.96875 Z "/>
</symbol>
<symbol overflow="visible" id="glyph0-1">
<path style="stroke:none;" d="M 2.78125 -0.5625 C 2.632812 -0.375 2.472656 -0.234375 2.296875 -0.140625 C 2.117188 -0.046875 1.914062 0 1.6875 0 C 1.28125 0 0.941406 -0.160156 0.671875 -0.484375 C 0.410156 -0.804688 0.28125 -1.210938 0.28125 -1.703125 C 0.28125 -2.203125 0.410156 -2.613281 0.671875 -2.9375 C 0.941406 -3.257812 1.28125 -3.421875 1.6875 -3.421875 C 1.914062 -3.421875 2.117188 -3.375 2.296875 -3.28125 C 2.472656 -3.1875 2.632812 -3.039062 2.78125 -2.84375 L 2.78125 -3.34375 L 3.859375 -3.34375 L 3.859375 -0.34375 C 3.859375 0.195312 3.6875 0.609375 3.34375 0.890625 C 3.007812 1.171875 2.519531 1.3125 1.875 1.3125 C 1.664062 1.3125 1.460938 1.296875 1.265625 1.265625 C 1.078125 1.234375 0.882812 1.1875 0.6875 1.125 L 0.6875 0.296875 C 0.875 0.398438 1.054688 0.476562 1.234375 0.53125 C 1.410156 0.582031 1.585938 0.609375 1.765625 0.609375 C 2.117188 0.609375 2.375 0.53125 2.53125 0.375 C 2.695312 0.226562 2.78125 -0.0078125 2.78125 -0.34375 Z M 2.078125 -2.640625 C 1.859375 -2.640625 1.6875 -2.554688 1.5625 -2.390625 C 1.4375 -2.234375 1.375 -2.003906 1.375 -1.703125 C 1.375 -1.398438 1.429688 -1.171875 1.546875 -1.015625 C 1.671875 -0.859375 1.847656 -0.78125 2.078125 -0.78125 C 2.304688 -0.78125 2.476562 -0.859375 2.59375 -1.015625 C 2.71875 -1.179688 2.78125 -1.410156 2.78125 -1.703125 C 2.78125 -2.003906 2.71875 -2.234375 2.59375 -2.390625 C 2.476562 -2.554688 2.304688 -2.640625 2.078125 -2.640625 Z "/>
</symbol>
<symbol overflow="visible" id="glyph0-2">
<path style="stroke:none;" d="M 0.515625 -3.34375 L 1.578125 -3.34375 L 1.578125 0 L 0.515625 0 Z M 0.515625 -4.640625 L 1.578125 -4.640625 L 1.578125 -3.765625 L 0.515625 -3.765625 Z "/>
</symbol>
<symbol overflow="visible" id="glyph0-3">
<path style="stroke:none;" d="M 1.671875 -4.296875 L 1.671875 -3.34375 L 2.78125 -3.34375 L 2.78125 -2.578125 L 1.671875 -2.578125 L 1.671875 -1.15625 C 1.671875 -1 1.703125 -0.894531 1.765625 -0.84375 C 1.828125 -0.789062 1.953125 -0.765625 2.140625 -0.765625 L 2.6875 -0.765625 L 2.6875 0 L 1.765625 0 C 1.347656 0 1.050781 -0.0859375 0.875 -0.265625 C 0.695312 -0.441406 0.609375 -0.738281 0.609375 -1.15625 L 0.609375 -2.578125 L 0.078125 -2.578125 L 0.078125 -3.34375 L 0.609375 -3.34375 L 0.609375 -4.296875 Z "/>
</symbol>
<symbol overflow="visible" id="glyph0-4">
<path style="stroke:none;" d="M 3.875 -2.03125 L 3.875 0 L 2.796875 0 L 2.796875 -1.546875 C 2.796875 -1.835938 2.789062 -2.035156 2.78125 -2.140625 C 2.769531 -2.253906 2.75 -2.335938 2.71875 -2.390625 C 2.675781 -2.460938 2.617188 -2.515625 2.546875 -2.546875 C 2.472656 -2.585938 2.390625 -2.609375 2.296875 -2.609375 C 2.078125 -2.609375 1.898438 -2.519531 1.765625 -2.34375 C 1.640625 -2.175781 1.578125 -1.941406 1.578125 -1.640625 L 1.578125 0 L 0.515625 0 L 0.515625 -4.640625 L 1.578125 -4.640625 L 1.578125 -2.859375 C 1.742188 -3.046875 1.914062 -3.1875 2.09375 -3.28125 C 2.269531 -3.375 2.46875 -3.421875 2.6875 -3.421875 C 3.070312 -3.421875 3.363281 -3.300781 3.5625 -3.0625 C 3.769531 -2.832031 3.875 -2.488281 3.875 -2.03125 Z "/>
</symbol>
<symbol overflow="visible" id="glyph0-5">
<path style="stroke:none;" d="M 0.484375 -1.296875 L 0.484375 -3.34375 L 1.546875 -3.34375 L 1.546875 -3 C 1.546875 -2.820312 1.546875 -2.597656 1.546875 -2.328125 C 1.546875 -2.054688 1.546875 -1.875 1.546875 -1.78125 C 1.546875 -1.507812 1.550781 -1.3125 1.5625 -1.1875 C 1.582031 -1.070312 1.609375 -0.988281 1.640625 -0.9375 C 1.679688 -0.863281 1.738281 -0.804688 1.8125 -0.765625 C 1.882812 -0.734375 1.960938 -0.71875 2.046875 -0.71875 C 2.273438 -0.71875 2.453125 -0.800781 2.578125 -0.96875 C 2.703125 -1.144531 2.765625 -1.382812 2.765625 -1.6875 L 2.765625 -3.34375 L 3.84375 -3.34375 L 3.84375 0 L 2.765625 0 L 2.765625 -0.484375 C 2.609375 -0.285156 2.4375 -0.140625 2.25 -0.046875 C 2.070312 0.046875 1.875 0.09375 1.65625 0.09375 C 1.269531 0.09375 0.976562 -0.0234375 0.78125 -0.265625 C 0.582031 -0.503906 0.484375 -0.847656 0.484375 -1.296875 Z "/>
</symbol>
<symbol overflow="visible" id="glyph0-6">
<path style="stroke:none;" d="M 2.296875 -0.6875 C 2.523438 -0.6875 2.695312 -0.769531 2.8125 -0.9375 C 2.9375 -1.101562 3 -1.347656 3 -1.671875 C 3 -1.984375 2.9375 -2.222656 2.8125 -2.390625 C 2.695312 -2.554688 2.523438 -2.640625 2.296875 -2.640625 C 2.066406 -2.640625 1.890625 -2.554688 1.765625 -2.390625 C 1.640625 -2.222656 1.578125 -1.984375 1.578125 -1.671875 C 1.578125 -1.347656 1.640625 -1.101562 1.765625 -0.9375 C 1.890625 -0.769531 2.066406 -0.6875 2.296875 -0.6875 Z M 1.578125 -2.859375 C 1.722656 -3.046875 1.882812 -3.1875 2.0625 -3.28125 C 2.25 -3.375 2.457031 -3.421875 2.6875 -3.421875 C 3.101562 -3.421875 3.441406 -3.253906 3.703125 -2.921875 C 3.960938 -2.597656 4.09375 -2.179688 4.09375 -1.671875 C 4.09375 -1.148438 3.960938 -0.722656 3.703125 -0.390625 C 3.441406 -0.0664062 3.101562 0.09375 2.6875 0.09375 C 2.457031 0.09375 2.25 0.046875 2.0625 -0.046875 C 1.882812 -0.140625 1.722656 -0.285156 1.578125 -0.484375 L 1.578125 0 L 0.515625 0 L 0.515625 -4.640625 L 1.578125 -4.640625 Z "/>
</symbol>
<symbol overflow="visible" id="glyph0-7">
<path style="stroke:none;" d="M 0.625 -1.15625 L 1.703125 -1.15625 L 1.703125 0 L 0.625 0 Z "/>
</symbol>
<symbol overflow="visible" id="glyph0-8">
<path style="stroke:none;" d="M 3.21875 -3.234375 L 3.21875 -2.359375 C 3.070312 -2.460938 2.925781 -2.535156 2.78125 -2.578125 C 2.632812 -2.628906 2.484375 -2.65625 2.328125 -2.65625 C 2.023438 -2.65625 1.789062 -2.566406 1.625 -2.390625 C 1.457031 -2.222656 1.375 -1.984375 1.375 -1.671875 C 1.375 -1.359375 1.457031 -1.113281 1.625 -0.9375 C 1.789062 -0.757812 2.023438 -0.671875 2.328125 -0.671875 C 2.492188 -0.671875 2.648438 -0.695312 2.796875 -0.75 C 2.941406 -0.800781 3.082031 -0.875 3.21875 -0.96875 L 3.21875 -0.09375 C 3.050781 -0.03125 2.878906 0.015625 2.703125 0.046875 C 2.535156 0.078125 2.363281 0.09375 2.1875 0.09375 C 1.582031 0.09375 1.109375 -0.0625 0.765625 -0.375 C 0.429688 -0.6875 0.265625 -1.117188 0.265625 -1.671875 C 0.265625 -2.222656 0.429688 -2.648438 0.765625 -2.953125 C 1.109375 -3.265625 1.582031 -3.421875 2.1875 -3.421875 C 2.363281 -3.421875 2.535156 -3.40625 2.703125 -3.375 C 2.867188 -3.34375 3.039062 -3.296875 3.21875 -3.234375 Z "/>
</symbol>
<symbol overflow="visible" id="glyph0-9">
<path style="stroke:none;" d="M 2.109375 -2.65625 C 1.867188 -2.65625 1.6875 -2.566406 1.5625 -2.390625 C 1.4375 -2.222656 1.375 -1.984375 1.375 -1.671875 C 1.375 -1.347656 1.4375 -1.097656 1.5625 -0.921875 C 1.6875 -0.753906 1.867188 -0.671875 2.109375 -0.671875 C 2.335938 -0.671875 2.515625 -0.753906 2.640625 -0.921875 C 2.765625 -1.097656 2.828125 -1.347656 2.828125 -1.671875 C 2.828125 -1.984375 2.765625 -2.222656 2.640625 -2.390625 C 2.515625 -2.566406 2.335938 -2.65625 2.109375 -2.65625 Z M 2.109375 -3.421875 C 2.679688 -3.421875 3.128906 -3.265625 3.453125 -2.953125 C 3.773438 -2.640625 3.9375 -2.210938 3.9375 -1.671875 C 3.9375 -1.117188 3.773438 -0.6875 3.453125 -0.375 C 3.128906 -0.0625 2.679688 0.09375 2.109375 0.09375 C 1.523438 0.09375 1.070312 -0.0625 0.75 -0.375 C 0.425781 -0.6875 0.265625 -1.117188 0.265625 -1.671875 C 0.265625 -2.210938 0.425781 -2.640625 0.75 -2.953125 C 1.070312 -3.265625 1.523438 -3.421875 2.109375 -3.421875 Z "/>
</symbol>
<symbol overflow="visible" id="glyph0-10">
<path style="stroke:none;" d="M 3.609375 -2.78125 C 3.742188 -2.988281 3.90625 -3.144531 4.09375 -3.25 C 4.28125 -3.363281 4.484375 -3.421875 4.703125 -3.421875 C 5.085938 -3.421875 5.378906 -3.300781 5.578125 -3.0625 C 5.773438 -2.832031 5.875 -2.488281 5.875 -2.03125 L 5.875 0 L 4.8125 0 L 4.8125 -1.734375 C 4.8125 -1.765625 4.8125 -1.789062 4.8125 -1.8125 C 4.8125 -1.84375 4.8125 -1.882812 4.8125 -1.9375 C 4.8125 -2.175781 4.773438 -2.347656 4.703125 -2.453125 C 4.640625 -2.554688 4.53125 -2.609375 4.375 -2.609375 C 4.164062 -2.609375 4.003906 -2.523438 3.890625 -2.359375 C 3.785156 -2.191406 3.734375 -1.953125 3.734375 -1.640625 L 3.734375 0 L 2.65625 0 L 2.65625 -1.734375 C 2.65625 -2.109375 2.625 -2.347656 2.5625 -2.453125 C 2.5 -2.554688 2.382812 -2.609375 2.21875 -2.609375 C 2.019531 -2.609375 1.863281 -2.523438 1.75 -2.359375 C 1.632812 -2.191406 1.578125 -1.953125 1.578125 -1.640625 L 1.578125 0 L 0.5 0 L 0.5 -3.34375 L 1.578125 -3.34375 L 1.578125 -2.859375 C 1.710938 -3.046875 1.863281 -3.1875 2.03125 -3.28125 C 2.195312 -3.375 2.382812 -3.421875 2.59375 -3.421875 C 2.820312 -3.421875 3.023438 -3.363281 3.203125 -3.25 C 3.378906 -3.144531 3.515625 -2.988281 3.609375 -2.78125 Z "/>
</symbol>
<symbol overflow="visible" id="glyph0-11">
<path style="stroke:none;" d="M 1.5625 -4.453125 L 2.234375 -4.453125 L 0.65625 0.5625 L 0 0.5625 Z "/>
</symbol>
<symbol overflow="visible" id="glyph0-12">
<path style="stroke:none;" d="M 3.84375 -1.671875 L 3.84375 -1.375 L 1.34375 -1.375 C 1.375 -1.125 1.46875 -0.9375 1.625 -0.8125 C 1.78125 -0.6875 1.992188 -0.625 2.265625 -0.625 C 2.492188 -0.625 2.722656 -0.65625 2.953125 -0.71875 C 3.191406 -0.789062 3.4375 -0.894531 3.6875 -1.03125 L 3.6875 -0.203125 C 3.4375 -0.109375 3.179688 -0.0351562 2.921875 0.015625 C 2.671875 0.0664062 2.421875 0.09375 2.171875 0.09375 C 1.566406 0.09375 1.097656 -0.0546875 0.765625 -0.359375 C 0.429688 -0.671875 0.265625 -1.109375 0.265625 -1.671875 C 0.265625 -2.210938 0.425781 -2.640625 0.75 -2.953125 C 1.082031 -3.265625 1.535156 -3.421875 2.109375 -3.421875 C 2.640625 -3.421875 3.0625 -3.257812 3.375 -2.9375 C 3.6875 -2.625 3.84375 -2.203125 3.84375 -1.671875 Z M 2.75 -2.03125 C 2.75 -2.238281 2.6875 -2.40625 2.5625 -2.53125 C 2.445312 -2.65625 2.296875 -2.71875 2.109375 -2.71875 C 1.898438 -2.71875 1.726562 -2.65625 1.59375 -2.53125 C 1.46875 -2.414062 1.390625 -2.25 1.359375 -2.03125 Z "/>
</symbol>
<symbol overflow="visible" id="glyph0-13">
<path style="stroke:none;" d="M 2.78125 -2.859375 L 2.78125 -4.640625 L 3.859375 -4.640625 L 3.859375 0 L 2.78125 0 L 2.78125 -0.484375 C 2.632812 -0.285156 2.472656 -0.140625 2.296875 -0.046875 C 2.117188 0.046875 1.914062 0.09375 1.6875 0.09375 C 1.269531 0.09375 0.929688 -0.0664062 0.671875 -0.390625 C 0.410156 -0.722656 0.28125 -1.148438 0.28125 -1.671875 C 0.28125 -2.179688 0.410156 -2.597656 0.671875 -2.921875 C 0.929688 -3.253906 1.269531 -3.421875 1.6875 -3.421875 C 1.914062 -3.421875 2.117188 -3.375 2.296875 -3.28125 C 2.472656 -3.1875 2.632812 -3.046875 2.78125 -2.859375 Z M 2.078125 -0.6875 C 2.304688 -0.6875 2.476562 -0.769531 2.59375 -0.9375 C 2.71875 -1.101562 2.78125 -1.347656 2.78125 -1.671875 C 2.78125 -1.984375 2.71875 -2.222656 2.59375 -2.390625 C 2.476562 -2.554688 2.304688 -2.640625 2.078125 -2.640625 C 1.847656 -2.640625 1.671875 -2.554688 1.546875 -2.390625 C 1.429688 -2.222656 1.375 -1.984375 1.375 -1.671875 C 1.375 -1.347656 1.429688 -1.101562 1.546875 -0.9375 C 1.671875 -0.769531 1.847656 -0.6875 2.078125 -0.6875 Z "/>
</symbol>
<symbol overflow="visible" id="glyph0-14">
<path style="stroke:none;" d="M 3.125 -3.234375 L 3.125 -2.421875 C 2.894531 -2.515625 2.671875 -2.585938 2.453125 -2.640625 C 2.242188 -2.691406 2.046875 -2.71875 1.859375 -2.71875 C 1.648438 -2.71875 1.5 -2.691406 1.40625 -2.640625 C 1.3125 -2.585938 1.265625 -2.507812 1.265625 -2.40625 C 1.265625 -2.3125 1.300781 -2.242188 1.375 -2.203125 C 1.445312 -2.160156 1.578125 -2.128906 1.765625 -2.109375 L 1.953125 -2.078125 C 2.503906 -2.003906 2.875 -1.890625 3.0625 -1.734375 C 3.25 -1.578125 3.34375 -1.328125 3.34375 -0.984375 C 3.34375 -0.628906 3.210938 -0.359375 2.953125 -0.171875 C 2.691406 0.00390625 2.300781 0.09375 1.78125 0.09375 C 1.5625 0.09375 1.332031 0.0703125 1.09375 0.03125 C 0.851562 0 0.609375 -0.0507812 0.359375 -0.125 L 0.359375 -0.9375 C 0.578125 -0.832031 0.796875 -0.753906 1.015625 -0.703125 C 1.242188 -0.648438 1.472656 -0.625 1.703125 -0.625 C 1.910156 -0.625 2.066406 -0.648438 2.171875 -0.703125 C 2.273438 -0.765625 2.328125 -0.851562 2.328125 -0.96875 C 2.328125 -1.0625 2.289062 -1.128906 2.21875 -1.171875 C 2.144531 -1.222656 2.003906 -1.257812 1.796875 -1.28125 L 1.609375 -1.3125 C 1.128906 -1.375 0.789062 -1.484375 0.59375 -1.640625 C 0.40625 -1.804688 0.3125 -2.050781 0.3125 -2.375 C 0.3125 -2.726562 0.429688 -2.988281 0.671875 -3.15625 C 0.921875 -3.332031 1.296875 -3.421875 1.796875 -3.421875 C 1.992188 -3.421875 2.195312 -3.40625 2.40625 -3.375 C 2.625 -3.34375 2.863281 -3.296875 3.125 -3.234375 Z "/>
</symbol>
<symbol overflow="visible" id="glyph0-15">
<path style="stroke:none;" d="M 0.328125 -2.1875 L 2.203125 -2.1875 L 2.203125 -1.328125 L 0.328125 -1.328125 Z "/>
</symbol>
<symbol overflow="visible" id="glyph0-16">
<path style="stroke:none;" d="M 3 -2.4375 C 2.90625 -2.476562 2.8125 -2.507812 2.71875 -2.53125 C 2.625 -2.550781 2.53125 -2.5625 2.4375 -2.5625 C 2.164062 -2.5625 1.953125 -2.472656 1.796875 -2.296875 C 1.648438 -2.117188 1.578125 -1.867188 1.578125 -1.546875 L 1.578125 0 L 0.515625 0 L 0.515625 -3.34375 L 1.578125 -3.34375 L 1.578125 -2.796875 C 1.710938 -3.015625 1.867188 -3.171875 2.046875 -3.265625 C 2.234375 -3.367188 2.445312 -3.421875 2.6875 -3.421875 C 2.726562 -3.421875 2.769531 -3.414062 2.8125 -3.40625 C 2.851562 -3.40625 2.910156 -3.398438 2.984375 -3.390625 Z "/>
</symbol>
<symbol overflow="visible" id="glyph0-17">
<path style="stroke:none;" d="M 0.5625 -4.453125 L 3.65625 -4.453125 L 3.65625 -3.578125 L 1.703125 -3.578125 L 1.703125 -2.75 L 3.546875 -2.75 L 3.546875 -1.890625 L 1.703125 -1.890625 L 1.703125 -0.875 L 3.71875 -0.875 L 3.71875 0 L 0.5625 0 Z "/>
</symbol>
<symbol overflow="visible" id="glyph0-18">
<path style="stroke:none;" d="M 3.65625 -4.3125 L 3.65625 -3.375 C 3.414062 -3.476562 3.175781 -3.554688 2.9375 -3.609375 C 2.707031 -3.671875 2.488281 -3.703125 2.28125 -3.703125 C 2.007812 -3.703125 1.804688 -3.660156 1.671875 -3.578125 C 1.546875 -3.503906 1.484375 -3.390625 1.484375 -3.234375 C 1.484375 -3.117188 1.523438 -3.023438 1.609375 -2.953125 C 1.703125 -2.890625 1.863281 -2.832031 2.09375 -2.78125 L 2.578125 -2.6875 C 3.078125 -2.582031 3.429688 -2.429688 3.640625 -2.234375 C 3.847656 -2.035156 3.953125 -1.75 3.953125 -1.375 C 3.953125 -0.875 3.804688 -0.503906 3.515625 -0.265625 C 3.222656 -0.0234375 2.78125 0.09375 2.1875 0.09375 C 1.894531 0.09375 1.609375 0.0625 1.328125 0 C 1.046875 -0.0507812 0.765625 -0.128906 0.484375 -0.234375 L 0.484375 -1.203125 C 0.765625 -1.046875 1.035156 -0.929688 1.296875 -0.859375 C 1.566406 -0.785156 1.820312 -0.75 2.0625 -0.75 C 2.320312 -0.75 2.515625 -0.789062 2.640625 -0.875 C 2.773438 -0.957031 2.84375 -1.078125 2.84375 -1.234375 C 2.84375 -1.367188 2.796875 -1.472656 2.703125 -1.546875 C 2.617188 -1.628906 2.441406 -1.695312 2.171875 -1.75 L 1.71875 -1.859375 C 1.28125 -1.953125 0.957031 -2.101562 0.75 -2.3125 C 0.539062 -2.519531 0.4375 -2.800781 0.4375 -3.15625 C 0.4375 -3.59375 0.578125 -3.929688 0.859375 -4.171875 C 1.148438 -4.410156 1.566406 -4.53125 2.109375 -4.53125 C 2.347656 -4.53125 2.597656 -4.507812 2.859375 -4.46875 C 3.117188 -4.4375 3.382812 -4.382812 3.65625 -4.3125 Z "/>
</symbol>
</g>
</defs>
<g id="surface267">
<g style="fill:rgb(100%,100%,100%);fill-opacity:1;">
  <use xlink:href="#glyph0-1" x="30" y="25.671875"/>
  <use xlink:href="#glyph0-2" x="34" y="25.671875"/>
  <use xlink:href="#glyph0-3" x="36" y="25.671875"/>
  <use xlink:href="#glyph0-4" x="39" y="25.671875"/>
  <use xlink:href="#glyph0-5" x="43" y="25.671875"/>
  <use xlink:href="#glyph0-6" x="47" y="25.671875"/>
  <use xlink:href="#glyph0-7" x="51" y="25.671875"/>
  <use xlink:href="#glyph0-8" x="53" y="25.671875"/>
  <use xlink:href="#glyph0-9" x="57" y="25.671875"/>
  <use xlink:href="#glyph0-10" x="61" y="25.671875"/>
  <use xlink:href="#glyph0-11" x="67" y="25.671875"/>
  <use xlink:href="#glyph0-12" x="69" y="25.671875"/>
  <use xlink:href="#glyph0-10" x="73" y="25.671875"/>
  <use xlink:href="#glyph0-6" x="79" y="25.671875"/>
  <use xlink:href="#glyph0-12" x="83" y="25.671875"/>
  <use xlink:href="#glyph0-13" x="87" y="25.671875"/>
  <use xlink:href="#glyph0-13" x="91" y="25.671875"/>
  <use xlink:href="#glyph0-12" x="95" y="25.671875"/>
  <use xlink:href="#glyph0-13" x="99" y="25.671875"/>
  <use xlink:href="#glyph0-9" x="103" y="25.671875"/>
  <use xlink:href="#glyph0-14" x="107" y="25.671875"/>
  <use xlink:href="#glyph0-15" x="111" y="25.671875"/>
  <use xlink:href="#glyph0-9" x="114" y="25.671875"/>
  <use xlink:href="#glyph0-16" x="118" y="25.671875"/>
  <use xlink:href="#glyph0-1" x="121" y="25.671875"/>
  <use xlink:href="#glyph0-11" x="125" y="25.671875"/>
  <use xlink:href="#glyph0-17" x="127" y="25.671875"/>
  <use xlink:href="#glyph0-9" x="131" y="25.671875"/>
  <use xlink:href="#glyph0-18" x="135" y="25.671875"/>
  <use xlink:href="#glyph0-3" x="139" y="25.671875"/>
  <use xlink:href="#glyph0-5" x="142" y="25.671875"/>
  <use xlink:href="#glyph0-13" x="146" y="25.671875"/>
  <use xlink:href="#glyph0-2" x="150" y="25.671875"/>
  <use xlink:href="#glyph0-9" x="152" y="25.671875"/>
</g>
</g>
</svg>
