<?xml version="1.0" encoding="UTF-8"?>
<svg xmlns="http://www.w3.org/2000/svg" xmlns:xlink="http://www.w3.org/1999/xlink" width="1920pt" height="1080pt" viewBox="0 0 1920 1080" version="1.1">
<defs>
<g>
<symbol overflow="visible" id="glyph0-0">
<path style="stroke:none;" d="M 0.5 1.765625 L 0.5 -7.046875 L 5.5 -7.046875 L 5.5 1.765625 Z M 1.0625 1.21875 L 4.9375 1.21875 L 4.9375 -6.484375 L 1.0625 -6.484375 Z "/>
</symbol>
<symbol overflow="visible" id="glyph0-1">
<path style="stroke:none;" d="M 0.46875 0 L 0.46875 -0.59375 L 1.40625 -0.59375 L 1.40625 -6.703125 L 0.46875 -6.703125 L 0.46875 -7.296875 L 7.015625 -7.296875 L 7.015625 -5.578125 L 6.34375 -5.578125 L 6.34375 -6.625 L 3.28125 -6.625 L 3.28125 -4.28125 L 5.1875 -4.28125 L 5.1875 -5.203125 L 5.859375 -5.203125 L 5.859375 -2.6875 L 5.1875 -2.6875 L 5.1875 -3.625 L 3.28125 -3.625 L 3.28125 -0.671875 L 6.4375 -0.671875 L 6.4375 -1.71875 L 7.109375 -1.71875 L 7.109375 0 Z "/>
</symbol>
<symbol overflow="visible" id="glyph0-2">
<path style="stroke:none;" d="M 3.34375 -0.40625 C 3.707031 -0.40625 3.960938 -0.5625 4.109375 -0.875 C 4.253906 -1.1875 4.328125 -1.757812 4.328125 -2.59375 C 4.328125 -3.425781 4.253906 -4 4.109375 -4.3125 C 3.960938 -4.625 3.707031 -4.78125 3.34375 -4.78125 C 2.96875 -4.78125 2.707031 -4.625 2.5625 -4.3125 C 2.414062 -4 2.34375 -3.425781 2.34375 -2.59375 C 2.34375 -1.769531 2.414062 -1.195312 2.5625 -0.875 C 2.707031 -0.5625 2.96875 -0.40625 3.34375 -0.40625 Z M 3.34375 0.140625 C 2.425781 0.140625 1.707031 -0.0976562 1.1875 -0.578125 C 0.664062 -1.066406 0.40625 -1.738281 0.40625 -2.59375 C 0.40625 -3.445312 0.664062 -4.113281 1.1875 -4.59375 C 1.707031 -5.082031 2.425781 -5.328125 3.34375 -5.328125 C 4.257812 -5.328125 4.972656 -5.082031 5.484375 -4.59375 C 6.003906 -4.113281 6.265625 -3.445312 6.265625 -2.59375 C 6.265625 -1.738281 6.003906 -1.066406 5.484375 -0.578125 C 4.972656 -0.0976562 4.257812 0.140625 3.34375 0.140625 Z "/>
</symbol>
<symbol overflow="visible" id="glyph0-3">
<path style="stroke:none;" d="M 0.765625 -0.359375 L 0.765625 -2.078125 L 1.390625 -2.078125 C 1.484375 -1.535156 1.707031 -1.128906 2.0625 -0.859375 C 2.414062 -0.585938 2.898438 -0.453125 3.515625 -0.453125 C 4.023438 -0.453125 4.410156 -0.546875 4.671875 -0.734375 C 4.929688 -0.929688 5.0625 -1.210938 5.0625 -1.578125 C 5.0625 -1.867188 4.972656 -2.097656 4.796875 -2.265625 C 4.617188 -2.429688 4.25 -2.582031 3.6875 -2.71875 L 2.59375 -2.984375 C 1.882812 -3.171875 1.382812 -3.425781 1.09375 -3.75 C 0.800781 -4.070312 0.65625 -4.53125 0.65625 -5.125 C 0.65625 -5.851562 0.894531 -6.414062 1.375 -6.8125 C 1.851562 -7.21875 2.53125 -7.421875 3.40625 -7.421875 C 3.820312 -7.421875 4.257812 -7.382812 4.71875 -7.3125 C 5.1875 -7.238281 5.664062 -7.132812 6.15625 -7 L 6.15625 -5.375 L 5.546875 -5.375 C 5.453125 -5.882812 5.242188 -6.253906 4.921875 -6.484375 C 4.597656 -6.710938 4.144531 -6.828125 3.5625 -6.828125 C 3.082031 -6.828125 2.71875 -6.742188 2.46875 -6.578125 C 2.21875 -6.410156 2.09375 -6.160156 2.09375 -5.828125 C 2.09375 -5.523438 2.175781 -5.296875 2.34375 -5.140625 C 2.519531 -4.984375 2.9375 -4.820312 3.59375 -4.65625 L 4.6875 -4.375 C 5.363281 -4.207031 5.851562 -3.941406 6.15625 -3.578125 C 6.46875 -3.222656 6.625 -2.734375 6.625 -2.109375 C 6.625 -1.367188 6.367188 -0.804688 5.859375 -0.421875 C 5.347656 -0.046875 4.601562 0.140625 3.625 0.140625 C 3.144531 0.140625 2.671875 0.0976562 2.203125 0.015625 C 1.734375 -0.0664062 1.253906 -0.191406 0.765625 -0.359375 Z "/>
</symbol>
<symbol overflow="visible" id="glyph0-4">
<path style="stroke:none;" d="M 0.984375 -4.59375 L 0.234375 -4.59375 L 0.234375 -5.1875 L 0.984375 -5.1875 L 0.984375 -6.796875 L 2.71875 -6.796875 L 2.71875 -5.1875 L 4.15625 -5.1875 L 4.15625 -4.59375 L 2.71875 -4.59375 L 2.71875 -1.421875 C 2.71875 -0.972656 2.753906 -0.691406 2.828125 -0.578125 C 2.898438 -0.460938 3.03125 -0.40625 3.21875 -0.40625 C 3.425781 -0.40625 3.578125 -0.472656 3.671875 -0.609375 C 3.773438 -0.753906 3.832031 -0.972656 3.84375 -1.265625 L 4.578125 -1.265625 C 4.546875 -0.742188 4.398438 -0.378906 4.140625 -0.171875 C 3.890625 0.0351562 3.453125 0.140625 2.828125 0.140625 C 2.109375 0.140625 1.617188 0.03125 1.359375 -0.1875 C 1.109375 -0.414062 0.984375 -0.828125 0.984375 -1.421875 Z "/>
</symbol>
<symbol overflow="visible" id="glyph0-5">
<path style="stroke:none;" d="M 6.1875 -5.1875 L 6.1875 -0.59375 L 6.921875 -0.59375 L 6.921875 0 L 4.453125 0 L 4.453125 -0.734375 C 4.253906 -0.421875 4.019531 -0.195312 3.75 -0.0625 C 3.476562 0.0703125 3.140625 0.140625 2.734375 0.140625 C 2.148438 0.140625 1.707031 -0.03125 1.40625 -0.375 C 1.113281 -0.71875 0.96875 -1.222656 0.96875 -1.890625 L 0.96875 -4.59375 L 0.234375 -4.59375 L 0.234375 -5.1875 L 2.703125 -5.1875 L 2.703125 -2.15625 C 2.703125 -1.507812 2.753906 -1.097656 2.859375 -0.921875 C 2.960938 -0.753906 3.160156 -0.671875 3.453125 -0.671875 C 3.796875 -0.671875 4.046875 -0.796875 4.203125 -1.046875 C 4.367188 -1.304688 4.453125 -1.71875 4.453125 -2.28125 L 4.453125 -4.59375 L 3.828125 -4.59375 L 3.828125 -5.1875 Z "/>
</symbol>
<symbol overflow="visible" id="glyph0-6">
<path style="stroke:none;" d="M 4.296875 -2.34375 L 4.296875 -2.859375 C 4.296875 -3.460938 4.21875 -3.898438 4.0625 -4.171875 C 3.90625 -4.441406 3.65625 -4.578125 3.3125 -4.578125 C 2.957031 -4.578125 2.707031 -4.429688 2.5625 -4.140625 C 2.414062 -3.859375 2.34375 -3.34375 2.34375 -2.59375 C 2.34375 -1.851562 2.414062 -1.335938 2.5625 -1.046875 C 2.707031 -0.765625 2.957031 -0.625 3.3125 -0.625 C 3.65625 -0.625 3.90625 -0.757812 4.0625 -1.03125 C 4.21875 -1.300781 4.296875 -1.738281 4.296875 -2.34375 Z M 6.015625 -0.59375 L 6.765625 -0.59375 L 6.765625 0 L 4.296875 0 L 4.296875 -0.65625 C 4.148438 -0.382812 3.953125 -0.179688 3.703125 -0.046875 C 3.453125 0.078125 3.144531 0.140625 2.78125 0.140625 C 2.039062 0.140625 1.457031 -0.101562 1.03125 -0.59375 C 0.613281 -1.082031 0.40625 -1.75 0.40625 -2.59375 C 0.40625 -3.445312 0.613281 -4.113281 1.03125 -4.59375 C 1.457031 -5.082031 2.039062 -5.328125 2.78125 -5.328125 C 3.144531 -5.328125 3.453125 -5.257812 3.703125 -5.125 C 3.953125 -5 4.148438 -4.800781 4.296875 -4.53125 L 4.296875 -7.015625 L 3.546875 -7.015625 L 3.546875 -7.59375 L 6.015625 -7.59375 Z "/>
</symbol>
<symbol overflow="visible" id="glyph0-7">
<path style="stroke:none;" d="M 0.921875 -6.65625 C 0.921875 -6.925781 1.007812 -7.148438 1.1875 -7.328125 C 1.375 -7.503906 1.597656 -7.59375 1.859375 -7.59375 C 2.117188 -7.59375 2.335938 -7.503906 2.515625 -7.328125 C 2.691406 -7.148438 2.78125 -6.925781 2.78125 -6.65625 C 2.78125 -6.40625 2.691406 -6.1875 2.515625 -6 C 2.335938 -5.820312 2.117188 -5.734375 1.859375 -5.734375 C 1.597656 -5.734375 1.375 -5.820312 1.1875 -6 C 1.007812 -6.175781 0.921875 -6.394531 0.921875 -6.65625 Z M 2.8125 -0.59375 L 3.546875 -0.59375 L 3.546875 0 L 0.34375 0 L 0.34375 -0.59375 L 1.078125 -0.59375 L 1.078125 -4.59375 L 0.34375 -4.59375 L 0.34375 -5.1875 L 2.8125 -5.1875 Z "/>
</symbol>
<symbol overflow="visible" id="glyph0-8">
<path style="stroke:none;" d=""/>
</symbol>
<symbol overflow="visible" id="glyph0-9">
<path style="stroke:none;" d="M 2.234375 0 L 0.390625 -4.59375 L -0.1875 -4.59375 L -0.1875 -5.1875 L 2.796875 -5.1875 L 2.796875 -4.59375 L 2.171875 -4.59375 L 3.484375 -1.3125 L 4.796875 -4.59375 L 4.109375 -4.59375 L 4.109375 -5.1875 L 6.0625 -5.1875 L 6.0625 -4.59375 L 5.453125 -4.59375 L 3.625 0 Z "/>
</symbol>
<symbol overflow="visible" id="glyph0-10">
<path style="stroke:none;" d="M 1.375 0 L 1.375 -0.59375 L 2.734375 -0.59375 L 2.734375 -6.484375 L 1.21875 -5.59375 L 1.21875 -6.3125 L 3.046875 -7.421875 L 4.59375 -7.421875 L 4.59375 -0.59375 L 5.96875 -0.59375 L 5.96875 0 Z "/>
</symbol>
<symbol overflow="visible" id="glyph0-11">
<path style="stroke:none;" d="M 0.8125 -0.796875 C 0.8125 -1.046875 0.898438 -1.257812 1.078125 -1.4375 C 1.265625 -1.625 1.484375 -1.71875 1.734375 -1.71875 C 1.992188 -1.71875 2.210938 -1.625 2.390625 -1.4375 C 2.578125 -1.257812 2.671875 -1.046875 2.671875 -0.796875 C 2.671875 -0.535156 2.578125 -0.3125 2.390625 -0.125 C 2.210938 0.0507812 1.992188 0.140625 1.734375 0.140625 C 1.484375 0.140625 1.265625 0.0507812 1.078125 -0.125 C 0.898438 -0.3125 0.8125 -0.535156 0.8125 -0.796875 Z "/>
</symbol>
<symbol overflow="visible" id="glyph0-12">
<path style="stroke:none;" d="M 3.484375 -0.4375 C 3.867188 -0.4375 4.132812 -0.613281 4.28125 -0.96875 C 4.425781 -1.320312 4.5 -2.210938 4.5 -3.640625 C 4.5 -5.054688 4.425781 -5.941406 4.28125 -6.296875 C 4.132812 -6.660156 3.867188 -6.84375 3.484375 -6.84375 C 3.085938 -6.84375 2.816406 -6.664062 2.671875 -6.3125 C 2.535156 -5.957031 2.46875 -5.066406 2.46875 -3.640625 C 2.46875 -2.210938 2.535156 -1.320312 2.671875 -0.96875 C 2.816406 -0.613281 3.085938 -0.4375 3.484375 -0.4375 Z M 3.484375 0.140625 C 2.503906 0.140625 1.753906 -0.179688 1.234375 -0.828125 C 0.722656 -1.484375 0.46875 -2.421875 0.46875 -3.640625 C 0.46875 -4.859375 0.722656 -5.789062 1.234375 -6.4375 C 1.753906 -7.09375 2.503906 -7.421875 3.484375 -7.421875 C 4.453125 -7.421875 5.191406 -7.09375 5.703125 -6.4375 C 6.222656 -5.789062 6.484375 -4.859375 6.484375 -3.640625 C 6.484375 -2.421875 6.222656 -1.484375 5.703125 -0.828125 C 5.191406 -0.179688 4.453125 0.140625 3.484375 0.140625 Z "/>
</symbol>
</g>
</defs>
<g id="surface207">
<g style="fill:rgb(100%,100%,100%);fill-opacity:1;">
  <use xlink:href="#glyph0-1" x="30" y="29.389648"/>
  <use xlink:href="#glyph0-2" x="38" y="29.389648"/>
  <use xlink:href="#glyph0-3" x="45" y="29.389648"/>
  <use xlink:href="#glyph0-4" x="52" y="29.389648"/>
  <use xlink:href="#glyph0-5" x="57" y="29.389648"/>
  <use xlink:href="#glyph0-6" x="64" y="29.389648"/>
  <use xlink:href="#glyph0-7" x="71" y="29.389648"/>
  <use xlink:href="#glyph0-2" x="75" y="29.389648"/>
  <use xlink:href="#glyph0-8" x="82" y="29.389648"/>
  <use xlink:href="#glyph0-9" x="85" y="29.389648"/>
  <use xlink:href="#glyph0-10" x="91" y="29.389648"/>
  <use xlink:href="#glyph0-11" x="98" y="29.389648"/>
  <use xlink:href="#glyph0-12" x="101" y="29.389648"/>
</g>
</g>
</svg>
