<?xml version="1.0" encoding="UTF-8"?>
<svg xmlns="http://www.w3.org/2000/svg" xmlns:xlink="http://www.w3.org/1999/xlink" width="854pt" height="480pt" viewBox="0 0 854 480" version="1.1">
<defs>
<g>
<symbol overflow="visible" id="glyph0-0">
<path style="stroke:none;" d="M 0.21875 0.78125 L 0.21875 -3.125 L 2.4375 -3.125 L 2.4375 0.78125 Z M 0.46875 0.53125 L 2.1875 0.53125 L 2.1875 -2.875 L 0.46875 -2.875 Z "/>
</symbol>
<symbol overflow="visible" id="glyph0-1">
<path style="stroke:none;" d="M 2.375 -0.59375 L 1.0625 -0.59375 L 0.859375 0 L 0.015625 0 L 1.21875 -3.234375 L 2.21875 -3.234375 L 3.40625 0 L 2.578125 0 Z M 1.28125 -1.1875 L 2.15625 -1.1875 L 1.71875 -2.484375 Z "/>
</symbol>
<symbol overflow="visible" id="glyph0-2">
<path style="stroke:none;" d="M 0.515625 -0.578125 L 1.25 -0.578125 L 1.25 -2.671875 L 0.5 -2.515625 L 0.5 -3.078125 L 1.25 -3.234375 L 2.046875 -3.234375 L 2.046875 -0.578125 L 2.78125 -0.578125 L 2.78125 0 L 0.515625 0 Z "/>
</symbol>
<symbol overflow="visible" id="glyph0-3">
<path style="stroke:none;" d="M 0.046875 -2.421875 L 0.828125 -2.421875 L 1.484375 -0.78125 L 2.03125 -2.421875 L 2.8125 -2.421875 L 1.796875 0.234375 C 1.691406 0.503906 1.570312 0.691406 1.4375 0.796875 C 1.300781 0.898438 1.117188 0.953125 0.890625 0.953125 L 0.4375 0.953125 L 0.4375 0.453125 L 0.6875 0.453125 C 0.820312 0.453125 0.914062 0.429688 0.96875 0.390625 C 1.03125 0.347656 1.078125 0.269531 1.109375 0.15625 L 1.140625 0.09375 Z "/>
</symbol>
<symbol overflow="visible" id="glyph0-4">
<path style="stroke:none;" d=""/>
</symbol>
<symbol overflow="visible" id="glyph0-5">
<path style="stroke:none;" d="M 0.34375 -0.9375 L 0.34375 -2.421875 L 1.125 -2.421875 L 1.125 -2.1875 C 1.125 -2.050781 1.125 -1.882812 1.125 -1.6875 C 1.125 -1.488281 1.125 -1.359375 1.125 -1.296875 C 1.125 -1.097656 1.128906 -0.953125 1.140625 -0.859375 C 1.148438 -0.773438 1.164062 -0.71875 1.1875 -0.6875 C 1.21875 -0.632812 1.257812 -0.59375 1.3125 -0.5625 C 1.363281 -0.539062 1.421875 -0.53125 1.484375 -0.53125 C 1.648438 -0.53125 1.78125 -0.585938 1.875 -0.703125 C 1.96875 -0.828125 2.015625 -1.003906 2.015625 -1.234375 L 2.015625 -2.421875 L 2.78125 -2.421875 L 2.78125 0 L 2.015625 0 L 2.015625 -0.34375 C 1.890625 -0.207031 1.757812 -0.101562 1.625 -0.03125 C 1.5 0.03125 1.359375 0.0625 1.203125 0.0625 C 0.921875 0.0625 0.707031 -0.0195312 0.5625 -0.1875 C 0.414062 -0.363281 0.34375 -0.613281 0.34375 -0.9375 Z "/>
</symbol>
<symbol overflow="visible" id="glyph0-6">
<path style="stroke:none;" d="M 2.03125 -2.078125 L 2.03125 -3.375 L 2.796875 -3.375 L 2.796875 0 L 2.03125 0 L 2.03125 -0.34375 C 1.914062 -0.207031 1.796875 -0.101562 1.671875 -0.03125 C 1.546875 0.03125 1.394531 0.0625 1.21875 0.0625 C 0.925781 0.0625 0.679688 -0.0546875 0.484375 -0.296875 C 0.296875 -0.535156 0.203125 -0.84375 0.203125 -1.21875 C 0.203125 -1.582031 0.296875 -1.882812 0.484375 -2.125 C 0.679688 -2.363281 0.925781 -2.484375 1.21875 -2.484375 C 1.382812 -2.484375 1.53125 -2.445312 1.65625 -2.375 C 1.789062 -2.3125 1.914062 -2.210938 2.03125 -2.078125 Z M 1.515625 -0.5 C 1.679688 -0.5 1.804688 -0.554688 1.890625 -0.671875 C 1.984375 -0.796875 2.03125 -0.976562 2.03125 -1.21875 C 2.03125 -1.445312 1.984375 -1.617188 1.890625 -1.734375 C 1.804688 -1.859375 1.679688 -1.921875 1.515625 -1.921875 C 1.347656 -1.921875 1.21875 -1.859375 1.125 -1.734375 C 1.039062 -1.617188 1 -1.445312 1 -1.21875 C 1 -0.976562 1.039062 -0.796875 1.125 -0.671875 C 1.21875 -0.554688 1.347656 -0.5 1.515625 -0.5 Z "/>
</symbol>
<symbol overflow="visible" id="glyph0-7">
<path style="stroke:none;" d="M 0.375 -2.421875 L 1.140625 -2.421875 L 1.140625 0 L 0.375 0 Z M 0.375 -3.375 L 1.140625 -3.375 L 1.140625 -2.734375 L 0.375 -2.734375 Z "/>
</symbol>
<symbol overflow="visible" id="glyph0-8">
<path style="stroke:none;" d="M 1.21875 -3.109375 L 1.21875 -2.421875 L 2.015625 -2.421875 L 2.015625 -1.875 L 1.21875 -1.875 L 1.21875 -0.84375 C 1.21875 -0.726562 1.238281 -0.648438 1.28125 -0.609375 C 1.332031 -0.578125 1.421875 -0.5625 1.546875 -0.5625 L 1.953125 -0.5625 L 1.953125 0 L 1.28125 0 C 0.976562 0 0.757812 -0.0625 0.625 -0.1875 C 0.5 -0.320312 0.4375 -0.539062 0.4375 -0.84375 L 0.4375 -1.875 L 0.0625 -1.875 L 0.0625 -2.421875 L 0.4375 -2.421875 L 0.4375 -3.109375 Z "/>
</symbol>
</g>
</defs>
<g id="surface227">
<g style="fill:rgb(100%,100%,100%);fill-opacity:1;">
  <use xlink:href="#glyph0-1" x="30" y="24.125"/>
  <use xlink:href="#glyph0-2" x="33" y="24.125"/>
  <use xlink:href="#glyph0-2" x="36" y="24.125"/>
  <use xlink:href="#glyph0-3" x="39" y="24.125"/>
  <use xlink:href="#glyph0-4" x="42" y="24.125"/>
  <use xlink:href="#glyph0-1" x="44" y="24.125"/>
  <use xlink:href="#glyph0-5" x="47" y="24.125"/>
  <use xlink:href="#glyph0-6" x="50" y="24.125"/>
  <use xlink:href="#glyph0-7" x="53" y="24.125"/>
  <use xlink:href="#glyph0-8" x="55" y="24.125"/>
</g>
</g>
</svg>
