<?xml version="1.0" encoding="UTF-8"?>
<svg xmlns="http://www.w3.org/2000/svg" xmlns:xlink="http://www.w3.org/1999/xlink" width="1920pt" height="1080pt" viewBox="0 0 1920 1080" version="1.1">
<defs>
<g>
<symbol overflow="visible" id="glyph0-0">
<path style="stroke:none;" d="M 0.609375 2.15625 L 0.609375 -8.609375 L 6.71875 -8.609375 L 6.71875 2.15625 Z M 1.296875 1.484375 L 6.03125 1.484375 L 6.03125 -7.921875 L 1.296875 -7.921875 Z "/>
</symbol>
<symbol overflow="visible" id="glyph0-1">
<path style="stroke:none;" d="M 0.578125 0 L 0.578125 -0.71875 L 1.71875 -0.71875 L 1.71875 -8.1875 L 0.578125 -8.1875 L 0.578125 -8.90625 L 8.515625 -8.90625 L 8.515625 -6.8125 L 7.703125 -6.8125 L 7.703125 -8.09375 L 4.015625 -8.09375 L 4.015625 -5.234375 L 6.28125 -5.234375 L 6.28125 -6.359375 L 7.09375 -6.359375 L 7.09375 -3.28125 L 6.28125 -3.28125 L 6.28125 -4.421875 L 4.015625 -4.421875 L 4.015625 -0.71875 L 5.421875 -0.71875 L 5.421875 0 Z "/>
</symbol>
<symbol overflow="visible" id="glyph0-2">
<path style="stroke:none;" d="M 4.890625 -3.578125 C 4.890625 -4.410156 4.8125 -4.992188 4.65625 -5.328125 C 4.507812 -5.671875 4.25 -5.84375 3.875 -5.84375 C 3.507812 -5.84375 3.25 -5.675781 3.09375 -5.34375 C 2.9375 -5.007812 2.859375 -4.457031 2.859375 -3.6875 L 2.859375 -3.578125 Z M 7.21875 -2.875 L 2.859375 -2.875 L 2.859375 -2.828125 C 2.859375 -2.003906 2.976562 -1.410156 3.21875 -1.046875 C 3.46875 -0.679688 3.867188 -0.5 4.421875 -0.5 C 4.878906 -0.5 5.25 -0.617188 5.53125 -0.859375 C 5.8125 -1.109375 5.992188 -1.460938 6.078125 -1.921875 L 7.0625 -1.921875 C 6.894531 -1.203125 6.554688 -0.671875 6.046875 -0.328125 C 5.535156 0.00390625 4.820312 0.171875 3.90625 0.171875 C 2.8125 0.171875 1.96875 -0.113281 1.375 -0.6875 C 0.789062 -1.269531 0.5 -2.097656 0.5 -3.171875 C 0.5 -4.222656 0.796875 -5.039062 1.390625 -5.625 C 1.992188 -6.21875 2.832031 -6.515625 3.90625 -6.515625 C 4.957031 -6.515625 5.765625 -6.203125 6.328125 -5.578125 C 6.890625 -4.960938 7.1875 -4.0625 7.21875 -2.875 Z "/>
</symbol>
<symbol overflow="visible" id="glyph0-3">
<path style="stroke:none;" d="M 6.734375 -3.890625 L 6.734375 -0.71875 L 7.640625 -0.71875 L 7.640625 0 L 4.625 0 L 4.625 -0.8125 C 4.34375 -0.46875 4.03125 -0.21875 3.6875 -0.0625 C 3.34375 0.09375 2.953125 0.171875 2.515625 0.171875 C 1.867188 0.171875 1.367188 0 1.015625 -0.34375 C 0.671875 -0.695312 0.5 -1.195312 0.5 -1.84375 C 0.5 -2.550781 0.75 -3.082031 1.25 -3.4375 C 1.75 -3.789062 2.503906 -3.96875 3.515625 -3.96875 L 4.625 -3.96875 L 4.625 -4.34375 C 4.625 -4.863281 4.5 -5.242188 4.25 -5.484375 C 4.007812 -5.734375 3.632812 -5.859375 3.125 -5.859375 C 2.707031 -5.859375 2.382812 -5.769531 2.15625 -5.59375 C 1.925781 -5.414062 1.765625 -5.132812 1.671875 -4.75 L 0.984375 -4.75 L 0.984375 -6.109375 C 1.367188 -6.242188 1.765625 -6.34375 2.171875 -6.40625 C 2.578125 -6.476562 3.003906 -6.515625 3.453125 -6.515625 C 4.585938 -6.515625 5.414062 -6.300781 5.9375 -5.875 C 6.46875 -5.457031 6.734375 -4.796875 6.734375 -3.890625 Z M 4.625 -2 L 4.625 -3.265625 L 3.828125 -3.265625 C 3.429688 -3.265625 3.125 -3.15625 2.90625 -2.9375 C 2.695312 -2.726562 2.59375 -2.421875 2.59375 -2.015625 C 2.59375 -1.609375 2.671875 -1.304688 2.828125 -1.109375 C 2.984375 -0.910156 3.21875 -0.8125 3.53125 -0.8125 C 3.851562 -0.8125 4.113281 -0.921875 4.3125 -1.140625 C 4.519531 -1.359375 4.625 -1.644531 4.625 -2 Z "/>
</symbol>
<symbol overflow="visible" id="glyph0-4">
<path style="stroke:none;" d="M 1.21875 -5.625 L 0.296875 -5.625 L 0.296875 -6.34375 L 1.21875 -6.34375 L 1.21875 -8.3125 L 3.328125 -8.3125 L 3.328125 -6.34375 L 5.078125 -6.34375 L 5.078125 -5.625 L 3.328125 -5.625 L 3.328125 -1.734375 C 3.328125 -1.179688 3.367188 -0.835938 3.453125 -0.703125 C 3.535156 -0.566406 3.695312 -0.5 3.9375 -0.5 C 4.1875 -0.5 4.375 -0.582031 4.5 -0.75 C 4.625 -0.925781 4.691406 -1.191406 4.703125 -1.546875 L 5.578125 -1.546875 C 5.546875 -0.910156 5.375 -0.460938 5.0625 -0.203125 C 4.75 0.046875 4.210938 0.171875 3.453125 0.171875 C 2.578125 0.171875 1.984375 0.0351562 1.671875 -0.234375 C 1.367188 -0.503906 1.21875 -1.003906 1.21875 -1.734375 Z "/>
</symbol>
<symbol overflow="visible" id="glyph0-5">
<path style="stroke:none;" d="M 7.5625 -6.34375 L 7.5625 -0.71875 L 8.46875 -0.71875 L 8.46875 0 L 5.453125 0 L 5.453125 -0.890625 C 5.203125 -0.515625 4.910156 -0.242188 4.578125 -0.078125 C 4.253906 0.0859375 3.84375 0.171875 3.34375 0.171875 C 2.632812 0.171875 2.097656 -0.0351562 1.734375 -0.453125 C 1.367188 -0.867188 1.1875 -1.488281 1.1875 -2.3125 L 1.1875 -5.625 L 0.28125 -5.625 L 0.28125 -6.34375 L 3.296875 -6.34375 L 3.296875 -2.640625 C 3.296875 -1.847656 3.359375 -1.34375 3.484375 -1.125 C 3.617188 -0.914062 3.863281 -0.8125 4.21875 -0.8125 C 4.644531 -0.8125 4.957031 -0.96875 5.15625 -1.28125 C 5.351562 -1.601562 5.453125 -2.101562 5.453125 -2.78125 L 5.453125 -5.625 L 4.671875 -5.625 L 4.671875 -6.34375 Z "/>
</symbol>
<symbol overflow="visible" id="glyph0-6">
<path style="stroke:none;" d="M 6.5625 -6.40625 L 6.5625 -4.515625 L 5.890625 -4.515625 C 5.867188 -4.859375 5.773438 -5.113281 5.609375 -5.28125 C 5.453125 -5.445312 5.222656 -5.53125 4.921875 -5.53125 C 4.460938 -5.53125 4.097656 -5.328125 3.828125 -4.921875 C 3.566406 -4.515625 3.4375 -3.953125 3.4375 -3.234375 L 3.4375 -0.71875 L 4.578125 -0.71875 L 4.578125 0 L 0.421875 0 L 0.421875 -0.71875 L 1.3125 -0.71875 L 1.3125 -5.625 L 0.359375 -5.625 L 0.359375 -6.34375 L 3.4375 -6.34375 L 3.4375 -5.21875 C 3.632812 -5.65625 3.90625 -5.976562 4.25 -6.1875 C 4.59375 -6.40625 5.007812 -6.515625 5.5 -6.515625 C 5.625 -6.515625 5.773438 -6.503906 5.953125 -6.484375 C 6.128906 -6.472656 6.332031 -6.445312 6.5625 -6.40625 Z "/>
</symbol>
<symbol overflow="visible" id="glyph0-7">
<path style="stroke:none;" d=""/>
</symbol>
<symbol overflow="visible" id="glyph0-8">
<path style="stroke:none;" d="M 9.109375 -2.546875 C 8.867188 -1.617188 8.441406 -0.929688 7.828125 -0.484375 C 7.222656 -0.046875 6.410156 0.171875 5.390625 0.171875 C 3.878906 0.171875 2.6875 -0.238281 1.8125 -1.0625 C 0.945312 -1.894531 0.515625 -3.019531 0.515625 -4.4375 C 0.515625 -5.863281 0.945312 -6.988281 1.8125 -7.8125 C 2.6875 -8.644531 3.878906 -9.0625 5.390625 -9.0625 C 5.921875 -9.0625 6.472656 -9 7.046875 -8.875 C 7.617188 -8.75 8.222656 -8.554688 8.859375 -8.296875 L 8.859375 -6.109375 L 8.109375 -6.109375 C 7.953125 -6.859375 7.664062 -7.414062 7.25 -7.78125 C 6.84375 -8.15625 6.300781 -8.34375 5.625 -8.34375 C 4.757812 -8.34375 4.113281 -8.023438 3.6875 -7.390625 C 3.269531 -6.753906 3.0625 -5.769531 3.0625 -4.4375 C 3.0625 -3.113281 3.269531 -2.132812 3.6875 -1.5 C 4.113281 -0.863281 4.765625 -0.546875 5.640625 -0.546875 C 6.234375 -0.546875 6.71875 -0.710938 7.09375 -1.046875 C 7.46875 -1.378906 7.742188 -1.878906 7.921875 -2.546875 Z "/>
</symbol>
<symbol overflow="visible" id="glyph0-9">
<path style="stroke:none;" d="M 4.078125 -0.5 C 4.523438 -0.5 4.835938 -0.6875 5.015625 -1.0625 C 5.203125 -1.445312 5.296875 -2.148438 5.296875 -3.171875 C 5.296875 -4.191406 5.203125 -4.890625 5.015625 -5.265625 C 4.835938 -5.648438 4.523438 -5.84375 4.078125 -5.84375 C 3.628906 -5.84375 3.3125 -5.648438 3.125 -5.265625 C 2.945312 -4.878906 2.859375 -4.179688 2.859375 -3.171875 C 2.859375 -2.160156 2.945312 -1.460938 3.125 -1.078125 C 3.3125 -0.691406 3.628906 -0.5 4.078125 -0.5 Z M 4.078125 0.171875 C 2.960938 0.171875 2.085938 -0.125 1.453125 -0.71875 C 0.816406 -1.3125 0.5 -2.128906 0.5 -3.171875 C 0.5 -4.222656 0.816406 -5.039062 1.453125 -5.625 C 2.085938 -6.21875 2.960938 -6.515625 4.078125 -6.515625 C 5.203125 -6.515625 6.078125 -6.21875 6.703125 -5.625 C 7.335938 -5.039062 7.65625 -4.222656 7.65625 -3.171875 C 7.65625 -2.128906 7.335938 -1.3125 6.703125 -0.71875 C 6.066406 -0.125 5.191406 0.171875 4.078125 0.171875 Z "/>
</symbol>
<symbol overflow="visible" id="glyph0-10">
<path style="stroke:none;" d="M 7.421875 -5.296875 C 7.710938 -5.722656 8.03125 -6.03125 8.375 -6.21875 C 8.71875 -6.414062 9.113281 -6.515625 9.5625 -6.515625 C 10.289062 -6.515625 10.832031 -6.304688 11.1875 -5.890625 C 11.550781 -5.484375 11.734375 -4.863281 11.734375 -4.03125 L 11.734375 -0.71875 L 12.640625 -0.71875 L 12.640625 0 L 8.875 0 L 8.875 -0.71875 L 9.625 -0.71875 L 9.625 -3.71875 C 9.625 -4.507812 9.5625 -5.007812 9.4375 -5.21875 C 9.320312 -5.425781 9.097656 -5.53125 8.765625 -5.53125 C 8.390625 -5.53125 8.097656 -5.382812 7.890625 -5.09375 C 7.691406 -4.800781 7.59375 -4.390625 7.59375 -3.859375 L 7.59375 -0.71875 L 8.34375 -0.71875 L 8.34375 0 L 4.71875 0 L 4.71875 -0.71875 L 5.484375 -0.71875 L 5.484375 -3.71875 C 5.484375 -4.507812 5.421875 -5.007812 5.296875 -5.21875 C 5.171875 -5.425781 4.945312 -5.53125 4.625 -5.53125 C 4.238281 -5.53125 3.941406 -5.382812 3.734375 -5.09375 C 3.535156 -4.800781 3.4375 -4.390625 3.4375 -3.859375 L 3.4375 -0.71875 L 4.1875 -0.71875 L 4.1875 0 L 0.421875 0 L 0.421875 -0.71875 L 1.3125 -0.71875 L 1.3125 -5.625 L 0.421875 -5.625 L 0.421875 -6.34375 L 3.4375 -6.34375 L 3.4375 -5.453125 C 3.675781 -5.816406 3.953125 -6.082031 4.265625 -6.25 C 4.585938 -6.425781 4.96875 -6.515625 5.40625 -6.515625 C 5.925781 -6.515625 6.347656 -6.414062 6.671875 -6.21875 C 6.992188 -6.019531 7.242188 -5.710938 7.421875 -5.296875 Z "/>
</symbol>
<symbol overflow="visible" id="glyph0-11">
<path style="stroke:none;" d="M 3.296875 -3.484375 L 3.296875 -2.859375 C 3.296875 -2.117188 3.390625 -1.582031 3.578125 -1.25 C 3.765625 -0.914062 4.070312 -0.75 4.5 -0.75 C 4.9375 -0.75 5.242188 -0.925781 5.421875 -1.28125 C 5.597656 -1.632812 5.6875 -2.265625 5.6875 -3.171875 C 5.6875 -4.085938 5.597656 -4.71875 5.421875 -5.0625 C 5.242188 -5.40625 4.9375 -5.578125 4.5 -5.578125 C 4.070312 -5.578125 3.765625 -5.410156 3.578125 -5.078125 C 3.390625 -4.753906 3.296875 -4.222656 3.296875 -3.484375 Z M 1.1875 -5.625 L 0.28125 -5.625 L 0.28125 -6.34375 L 3.296875 -6.34375 L 3.296875 -5.53125 C 3.472656 -5.863281 3.710938 -6.109375 4.015625 -6.265625 C 4.316406 -6.429688 4.691406 -6.515625 5.140625 -6.515625 C 6.046875 -6.515625 6.753906 -6.21875 7.265625 -5.625 C 7.785156 -5.03125 8.046875 -4.210938 8.046875 -3.171875 C 8.046875 -2.128906 7.785156 -1.3125 7.265625 -0.71875 C 6.753906 -0.125 6.046875 0.171875 5.140625 0.171875 C 4.691406 0.171875 4.316406 0.09375 4.015625 -0.0625 C 3.710938 -0.226562 3.472656 -0.476562 3.296875 -0.8125 L 3.296875 1.8125 L 4.28125 1.8125 L 4.28125 2.546875 L 0.28125 2.546875 L 0.28125 1.8125 L 1.1875 1.8125 Z "/>
</symbol>
<symbol overflow="visible" id="glyph0-12">
<path style="stroke:none;" d="M 1.125 -8.140625 C 1.125 -8.460938 1.234375 -8.734375 1.453125 -8.953125 C 1.679688 -9.171875 1.953125 -9.28125 2.265625 -9.28125 C 2.585938 -9.28125 2.859375 -9.171875 3.078125 -8.953125 C 3.296875 -8.734375 3.40625 -8.460938 3.40625 -8.140625 C 3.40625 -7.828125 3.296875 -7.554688 3.078125 -7.328125 C 2.859375 -7.109375 2.585938 -7 2.265625 -7 C 1.953125 -7 1.679688 -7.109375 1.453125 -7.328125 C 1.234375 -7.546875 1.125 -7.816406 1.125 -8.140625 Z M 3.4375 -0.71875 L 4.34375 -0.71875 L 4.34375 0 L 0.421875 0 L 0.421875 -0.71875 L 1.3125 -0.71875 L 1.3125 -5.625 L 0.421875 -5.625 L 0.421875 -6.34375 L 3.4375 -6.34375 Z "/>
</symbol>
<symbol overflow="visible" id="glyph0-13">
<path style="stroke:none;" d="M 0.578125 -0.1875 L 0.578125 -1.953125 L 1.25 -1.953125 C 1.300781 -1.484375 1.472656 -1.125 1.765625 -0.875 C 2.066406 -0.625 2.476562 -0.5 3 -0.5 C 3.425781 -0.5 3.753906 -0.570312 3.984375 -0.71875 C 4.210938 -0.875 4.328125 -1.085938 4.328125 -1.359375 C 4.328125 -1.617188 4.253906 -1.816406 4.109375 -1.953125 C 3.960938 -2.097656 3.679688 -2.222656 3.265625 -2.328125 L 2.390625 -2.546875 C 1.734375 -2.703125 1.257812 -2.929688 0.96875 -3.234375 C 0.675781 -3.546875 0.53125 -3.957031 0.53125 -4.46875 C 0.53125 -5.15625 0.765625 -5.664062 1.234375 -6 C 1.710938 -6.34375 2.453125 -6.515625 3.453125 -6.515625 C 3.828125 -6.515625 4.222656 -6.484375 4.640625 -6.421875 C 5.066406 -6.359375 5.535156 -6.265625 6.046875 -6.140625 L 6.046875 -4.53125 L 5.375 -4.53125 C 5.34375 -4.96875 5.1875 -5.296875 4.90625 -5.515625 C 4.632812 -5.734375 4.242188 -5.84375 3.734375 -5.84375 C 3.304688 -5.84375 2.984375 -5.769531 2.765625 -5.625 C 2.546875 -5.488281 2.4375 -5.289062 2.4375 -5.03125 C 2.4375 -4.820312 2.5 -4.65625 2.625 -4.53125 C 2.75 -4.40625 2.976562 -4.300781 3.3125 -4.21875 L 4.171875 -4 C 5.003906 -3.789062 5.578125 -3.53125 5.890625 -3.21875 C 6.210938 -2.90625 6.375 -2.472656 6.375 -1.921875 C 6.375 -1.203125 6.117188 -0.671875 5.609375 -0.328125 C 5.097656 0.00390625 4.304688 0.171875 3.234375 0.171875 C 2.835938 0.171875 2.414062 0.140625 1.96875 0.078125 C 1.53125 0.0234375 1.066406 -0.0625 0.578125 -0.1875 Z "/>
</symbol>
<symbol overflow="visible" id="glyph0-14">
<path style="stroke:none;" d="M 0.421875 0 L 0.421875 -0.71875 L 1.3125 -0.71875 L 1.3125 -5.625 L 0.421875 -5.625 L 0.421875 -6.34375 L 3.4375 -6.34375 L 3.4375 -5.453125 C 3.6875 -5.828125 3.972656 -6.097656 4.296875 -6.265625 C 4.628906 -6.429688 5.039062 -6.515625 5.53125 -6.515625 C 6.25 -6.515625 6.789062 -6.300781 7.15625 -5.875 C 7.519531 -5.457031 7.703125 -4.84375 7.703125 -4.03125 L 7.703125 -0.71875 L 8.609375 -0.71875 L 8.609375 0 L 4.8125 0 L 4.8125 -0.71875 L 5.578125 -0.71875 L 5.578125 -4.09375 C 5.578125 -4.625 5.507812 -4.992188 5.375 -5.203125 C 5.238281 -5.421875 5.003906 -5.53125 4.671875 -5.53125 C 4.242188 -5.53125 3.929688 -5.375 3.734375 -5.0625 C 3.535156 -4.75 3.4375 -4.25 3.4375 -3.5625 L 3.4375 -0.71875 L 4.203125 -0.71875 L 4.203125 0 Z "/>
</symbol>
</g>
</defs>
<g id="surface12">
<g style="fill:rgb(13.333333%,82.745098%,93.333333%);fill-opacity:1;">
  <use xlink:href="#glyph0-1" x="30" y="31.476562"/>
  <use xlink:href="#glyph0-2" x="38" y="31.476562"/>
  <use xlink:href="#glyph0-3" x="46" y="31.476562"/>
  <use xlink:href="#glyph0-4" x="54" y="31.476562"/>
  <use xlink:href="#glyph0-5" x="60" y="31.476562"/>
  <use xlink:href="#glyph0-6" x="69" y="31.476562"/>
  <use xlink:href="#glyph0-2" x="75" y="31.476562"/>
  <use xlink:href="#glyph0-7" x="83" y="31.476562"/>
  <use xlink:href="#glyph0-8" x="87" y="31.476562"/>
  <use xlink:href="#glyph0-9" x="97" y="31.476562"/>
  <use xlink:href="#glyph0-10" x="105" y="31.476562"/>
  <use xlink:href="#glyph0-11" x="118" y="31.476562"/>
  <use xlink:href="#glyph0-3" x="127" y="31.476562"/>
  <use xlink:href="#glyph0-6" x="135" y="31.476562"/>
  <use xlink:href="#glyph0-12" x="141" y="31.476562"/>
  <use xlink:href="#glyph0-13" x="146" y="31.476562"/>
  <use xlink:href="#glyph0-9" x="153" y="31.476562"/>
  <use xlink:href="#glyph0-14" x="161" y="31.476562"/>
</g>
</g>
</svg>
