<?xml version="1.0" encoding="UTF-8"?>
<svg xmlns="http://www.w3.org/2000/svg" xmlns:xlink="http://www.w3.org/1999/xlink" width="1920pt" height="1080pt" viewBox="0 0 1920 1080" version="1.1">
<defs>
<g>
<symbol overflow="visible" id="glyph0-0">
<path style="stroke:none;" d="M 0.15625 0.546875 L 0.15625 -2.15625 L 1.6875 -2.15625 L 1.6875 0.546875 Z M 0.328125 0.375 L 1.515625 0.375 L 1.515625 -1.984375 L 0.328125 -1.984375 Z "/>
</symbol>
<symbol overflow="visible" id="glyph0-1">
<path style="stroke:none;" d="M 0.359375 -0.15625 L 0.359375 -2.171875 L 0.09375 -2.171875 L 0.09375 -2.328125 L 0.625 -2.328125 L 0.625 -1.34375 C 0.675781 -1.4375 0.742188 -1.507812 0.828125 -1.5625 C 0.910156 -1.613281 1.015625 -1.640625 1.140625 -1.640625 C 1.335938 -1.640625 1.5 -1.5625 1.625 -1.40625 C 1.75 -1.25 1.8125 -1.046875 1.8125 -0.796875 C 1.8125 -0.546875 1.75 -0.34375 1.625 -0.1875 C 1.5 -0.03125 1.335938 0.046875 1.140625 0.046875 C 1.015625 0.046875 0.910156 0.0234375 0.828125 -0.015625 C 0.742188 -0.0664062 0.675781 -0.144531 0.625 -0.25 L 0.625 0 L 0.09375 0 L 0.09375 -0.15625 Z M 0.625 -0.71875 C 0.625 -0.519531 0.660156 -0.367188 0.734375 -0.265625 C 0.804688 -0.171875 0.914062 -0.125 1.0625 -0.125 C 1.195312 -0.125 1.300781 -0.179688 1.375 -0.296875 C 1.445312 -0.410156 1.484375 -0.578125 1.484375 -0.796875 C 1.484375 -1.015625 1.445312 -1.179688 1.375 -1.296875 C 1.300781 -1.410156 1.195312 -1.46875 1.0625 -1.46875 C 0.914062 -1.46875 0.804688 -1.414062 0.734375 -1.3125 C 0.660156 -1.207031 0.625 -1.0625 0.625 -0.875 Z "/>
</symbol>
<symbol overflow="visible" id="glyph0-2">
<path style="stroke:none;" d="M 0.921875 -0.109375 C 1.066406 -0.109375 1.175781 -0.164062 1.25 -0.28125 C 1.332031 -0.394531 1.375 -0.566406 1.375 -0.796875 C 1.375 -1.023438 1.332031 -1.195312 1.25 -1.3125 C 1.175781 -1.425781 1.066406 -1.484375 0.921875 -1.484375 C 0.773438 -1.484375 0.660156 -1.425781 0.578125 -1.3125 C 0.503906 -1.195312 0.46875 -1.023438 0.46875 -0.796875 C 0.46875 -0.566406 0.503906 -0.394531 0.578125 -0.28125 C 0.660156 -0.164062 0.773438 -0.109375 0.921875 -0.109375 Z M 0.921875 0.046875 C 0.691406 0.046875 0.503906 -0.03125 0.359375 -0.1875 C 0.222656 -0.34375 0.15625 -0.546875 0.15625 -0.796875 C 0.15625 -1.046875 0.222656 -1.25 0.359375 -1.40625 C 0.503906 -1.5625 0.691406 -1.640625 0.921875 -1.640625 C 1.148438 -1.640625 1.332031 -1.5625 1.46875 -1.40625 C 1.613281 -1.25 1.6875 -1.046875 1.6875 -0.796875 C 1.6875 -0.546875 1.613281 -0.34375 1.46875 -0.1875 C 1.332031 -0.03125 1.148438 0.046875 0.921875 0.046875 Z "/>
</symbol>
<symbol overflow="visible" id="glyph0-3">
<path style="stroke:none;" d="M 1.078125 -1.59375 L 1.59375 -1.59375 L 1.59375 -0.15625 L 1.859375 -0.15625 L 1.859375 0 L 1.328125 0 L 1.328125 -0.28125 C 1.273438 -0.175781 1.207031 -0.09375 1.125 -0.03125 C 1.039062 0.0195312 0.945312 0.046875 0.84375 0.046875 C 0.664062 0.046875 0.535156 0 0.453125 -0.09375 C 0.367188 -0.195312 0.328125 -0.359375 0.328125 -0.578125 L 0.328125 -1.421875 L 0.078125 -1.421875 L 0.078125 -1.59375 L 0.609375 -1.59375 L 0.609375 -0.65625 C 0.609375 -0.46875 0.628906 -0.335938 0.671875 -0.265625 C 0.722656 -0.191406 0.8125 -0.15625 0.9375 -0.15625 C 1.0625 -0.15625 1.15625 -0.203125 1.21875 -0.296875 C 1.289062 -0.390625 1.328125 -0.523438 1.328125 -0.703125 L 1.328125 -1.421875 L 1.078125 -1.421875 Z "/>
</symbol>
<symbol overflow="visible" id="glyph0-4">
<path style="stroke:none;" d="M 0.125 0 L 0.125 -0.15625 L 0.375 -0.15625 L 0.375 -1.421875 L 0.109375 -1.421875 L 0.109375 -1.59375 L 0.65625 -1.59375 L 0.65625 -1.3125 C 0.695312 -1.414062 0.757812 -1.492188 0.84375 -1.546875 C 0.925781 -1.609375 1.019531 -1.640625 1.125 -1.640625 C 1.300781 -1.640625 1.429688 -1.585938 1.515625 -1.484375 C 1.597656 -1.378906 1.640625 -1.222656 1.640625 -1.015625 L 1.640625 -0.15625 L 1.890625 -0.15625 L 1.890625 0 L 1.125 0 L 1.125 -0.15625 L 1.359375 -0.15625 L 1.359375 -0.921875 C 1.359375 -1.117188 1.332031 -1.253906 1.28125 -1.328125 C 1.238281 -1.398438 1.160156 -1.4375 1.046875 -1.4375 C 0.910156 -1.4375 0.8125 -1.390625 0.75 -1.296875 C 0.6875 -1.203125 0.65625 -1.066406 0.65625 -0.890625 L 0.65625 -0.15625 L 0.890625 -0.15625 L 0.890625 0 Z "/>
</symbol>
<symbol overflow="visible" id="glyph0-5">
<path style="stroke:none;" d="M 1.578125 -0.484375 C 1.535156 -0.304688 1.457031 -0.171875 1.34375 -0.078125 C 1.238281 0.00390625 1.097656 0.046875 0.921875 0.046875 C 0.691406 0.046875 0.503906 -0.03125 0.359375 -0.1875 C 0.222656 -0.34375 0.15625 -0.546875 0.15625 -0.796875 C 0.15625 -1.046875 0.222656 -1.25 0.359375 -1.40625 C 0.503906 -1.5625 0.691406 -1.640625 0.921875 -1.640625 C 1.023438 -1.640625 1.125 -1.625 1.21875 -1.59375 C 1.320312 -1.570312 1.421875 -1.535156 1.515625 -1.484375 L 1.515625 -1.078125 L 1.359375 -1.078125 C 1.335938 -1.222656 1.289062 -1.328125 1.21875 -1.390625 C 1.15625 -1.453125 1.054688 -1.484375 0.921875 -1.484375 C 0.773438 -1.484375 0.660156 -1.425781 0.578125 -1.3125 C 0.503906 -1.195312 0.46875 -1.023438 0.46875 -0.796875 C 0.46875 -0.566406 0.503906 -0.394531 0.578125 -0.28125 C 0.660156 -0.164062 0.773438 -0.109375 0.921875 -0.109375 C 1.046875 -0.109375 1.140625 -0.140625 1.203125 -0.203125 C 1.273438 -0.265625 1.328125 -0.359375 1.359375 -0.484375 Z "/>
</symbol>
<symbol overflow="visible" id="glyph0-6">
<path style="stroke:none;" d="M 1.65625 -0.765625 L 0.46875 -0.765625 L 0.46875 -0.75 C 0.46875 -0.539062 0.507812 -0.378906 0.59375 -0.265625 C 0.675781 -0.160156 0.796875 -0.109375 0.953125 -0.109375 C 1.078125 -0.109375 1.175781 -0.140625 1.25 -0.203125 C 1.320312 -0.265625 1.375 -0.359375 1.40625 -0.484375 L 1.640625 -0.484375 C 1.585938 -0.304688 1.503906 -0.171875 1.390625 -0.078125 C 1.273438 0.00390625 1.117188 0.046875 0.921875 0.046875 C 0.691406 0.046875 0.503906 -0.03125 0.359375 -0.1875 C 0.222656 -0.34375 0.15625 -0.546875 0.15625 -0.796875 C 0.15625 -1.046875 0.222656 -1.25 0.359375 -1.40625 C 0.492188 -1.5625 0.675781 -1.640625 0.90625 -1.640625 C 1.144531 -1.640625 1.328125 -1.5625 1.453125 -1.40625 C 1.585938 -1.257812 1.65625 -1.046875 1.65625 -0.765625 Z M 1.328125 -0.921875 C 1.328125 -1.109375 1.289062 -1.25 1.21875 -1.34375 C 1.144531 -1.4375 1.039062 -1.484375 0.90625 -1.484375 C 0.78125 -1.484375 0.679688 -1.4375 0.609375 -1.34375 C 0.535156 -1.25 0.488281 -1.109375 0.46875 -0.921875 Z "/>
</symbol>
</g>
</defs>
<g id="surface97">
<g style="fill:rgb(76.862745%,70.980392%,99.215686%);fill-opacity:1;">
  <use xlink:href="#glyph0-1" x="30" y="22.835938"/>
  <use xlink:href="#glyph0-2" x="32" y="22.835938"/>
  <use xlink:href="#glyph0-3" x="34" y="22.835938"/>
  <use xlink:href="#glyph0-4" x="36" y="22.835938"/>
  <use xlink:href="#glyph0-5" x="38" y="22.835938"/>
  <use xlink:href="#glyph0-6" x="40" y="22.835938"/>
</g>
</g>
</svg>
