<?xml version="1.0" encoding="UTF-8"?>
<svg xmlns="http://www.w3.org/2000/svg" xmlns:xlink="http://www.w3.org/1999/xlink" width="1920pt" height="1080pt" viewBox="0 0 1920 1080" version="1.1">
<defs>
<g>
<symbol overflow="visible" id="glyph0-0">
<path style="stroke:none;" d="M 0.25 0.890625 L 0.25 -3.53125 L 2.75 -3.53125 L 2.75 0.890625 Z M 0.53125 0.609375 L 2.46875 0.609375 L 2.46875 -3.25 L 0.53125 -3.25 Z "/>
</symbol>
<symbol overflow="visible" id="glyph0-1">
<path style="stroke:none;" d="M 0.234375 0 L 0.234375 -0.296875 L 0.703125 -0.296875 L 0.703125 -3.34375 L 0.234375 -3.34375 L 0.234375 -3.640625 L 3.515625 -3.640625 L 3.515625 -2.78125 L 3.171875 -2.78125 L 3.171875 -3.3125 L 1.640625 -3.3125 L 1.640625 -2.140625 L 2.59375 -2.140625 L 2.59375 -2.609375 L 2.9375 -2.609375 L 2.9375 -1.34375 L 2.59375 -1.34375 L 2.59375 -1.8125 L 1.640625 -1.8125 L 1.640625 -0.328125 L 3.21875 -0.328125 L 3.21875 -0.859375 L 3.5625 -0.859375 L 3.5625 0 Z "/>
</symbol>
<symbol overflow="visible" id="glyph0-2">
<path style="stroke:none;" d="M 1.75 -1.65625 L 2.21875 -2.296875 L 1.890625 -2.296875 L 1.890625 -2.59375 L 2.90625 -2.59375 L 2.90625 -2.296875 L 2.5625 -2.296875 L 1.90625 -1.375 L 2.671875 -0.296875 L 3.015625 -0.296875 L 3.015625 0 L 1.359375 0 L 1.359375 -0.296875 L 1.703125 -0.296875 L 1.21875 -0.984375 L 0.71875 -0.296875 L 1.0625 -0.296875 L 1.0625 0 L 0 0 L 0 -0.296875 L 0.375 -0.296875 L 1.0625 -1.265625 L 0.3125 -2.296875 L 0.03125 -2.296875 L 0.03125 -2.59375 L 1.609375 -2.59375 L 1.609375 -2.296875 L 1.296875 -2.296875 Z "/>
</symbol>
<symbol overflow="visible" id="glyph0-3">
<path style="stroke:none;" d="M 0.453125 -3.328125 C 0.453125 -3.460938 0.5 -3.570312 0.59375 -3.65625 C 0.6875 -3.75 0.800781 -3.796875 0.9375 -3.796875 C 1.0625 -3.796875 1.164062 -3.75 1.25 -3.65625 C 1.34375 -3.570312 1.390625 -3.460938 1.390625 -3.328125 C 1.390625 -3.203125 1.34375 -3.09375 1.25 -3 C 1.164062 -2.90625 1.0625 -2.859375 0.9375 -2.859375 C 0.800781 -2.859375 0.6875 -2.90625 0.59375 -3 C 0.5 -3.09375 0.453125 -3.203125 0.453125 -3.328125 Z M 1.40625 -0.296875 L 1.78125 -0.296875 L 1.78125 0 L 0.171875 0 L 0.171875 -0.296875 L 0.546875 -0.296875 L 0.546875 -2.296875 L 0.171875 -2.296875 L 0.171875 -2.59375 L 1.40625 -2.59375 Z "/>
</symbol>
<symbol overflow="visible" id="glyph0-4">
<path style="stroke:none;" d="M 0.5 -2.296875 L 0.125 -2.296875 L 0.125 -2.59375 L 0.5 -2.59375 L 0.5 -3.40625 L 1.359375 -3.40625 L 1.359375 -2.59375 L 2.078125 -2.59375 L 2.078125 -2.296875 L 1.359375 -2.296875 L 1.359375 -0.703125 C 1.359375 -0.484375 1.375 -0.34375 1.40625 -0.28125 C 1.445312 -0.226562 1.515625 -0.203125 1.609375 -0.203125 C 1.710938 -0.203125 1.789062 -0.238281 1.84375 -0.3125 C 1.894531 -0.382812 1.921875 -0.492188 1.921875 -0.640625 L 2.28125 -0.640625 C 2.269531 -0.378906 2.195312 -0.191406 2.0625 -0.078125 C 1.9375 0.0234375 1.71875 0.078125 1.40625 0.078125 C 1.050781 0.078125 0.8125 0.0195312 0.6875 -0.09375 C 0.5625 -0.207031 0.5 -0.410156 0.5 -0.703125 Z "/>
</symbol>
</g>
</defs>
<g id="surface227">
<g style="fill:rgb(92.54902%,28.235294%,60%);fill-opacity:1;">
  <use xlink:href="#glyph0-1" x="30" y="24.695312"/>
  <use xlink:href="#glyph0-2" x="34" y="24.695312"/>
  <use xlink:href="#glyph0-3" x="37" y="24.695312"/>
  <use xlink:href="#glyph0-4" x="39" y="24.695312"/>
</g>
</g>
</svg>
