<?xml version="1.0" encoding="UTF-8"?>
<svg xmlns="http://www.w3.org/2000/svg" xmlns:xlink="http://www.w3.org/1999/xlink" width="854pt" height="480pt" viewBox="0 0 854 480" version="1.1">
<defs>
<g>
<symbol overflow="visible" id="glyph0-0">
<path style="stroke:none;" d="M 0.78125 2.75 L 0.78125 -10.96875 L 8.5625 -10.96875 L 8.5625 2.75 Z M 1.65625 1.890625 L 7.6875 1.890625 L 7.6875 -10.09375 L 1.65625 -10.09375 Z "/>
</symbol>
<symbol overflow="visible" id="glyph0-1">
<path style="stroke:none;" d="M 1.828125 -2.015625 L 4.40625 -2.015625 L 4.40625 -9.359375 L 1.75 -8.8125 L 1.75 -10.796875 L 4.390625 -11.34375 L 7.171875 -11.34375 L 7.171875 -2.015625 L 9.75 -2.015625 L 9.75 0 L 1.828125 0 Z "/>
</symbol>
<symbol overflow="visible" id="glyph0-2">
<path style="stroke:none;" d="M 7.25 -6.109375 C 8.007812 -5.921875 8.585938 -5.582031 8.984375 -5.09375 C 9.390625 -4.601562 9.59375 -3.976562 9.59375 -3.21875 C 9.59375 -2.09375 9.160156 -1.238281 8.296875 -0.65625 C 7.429688 -0.0703125 6.175781 0.21875 4.53125 0.21875 C 3.945312 0.21875 3.363281 0.171875 2.78125 0.078125 C 2.195312 -0.015625 1.617188 -0.15625 1.046875 -0.34375 L 1.046875 -2.59375 C 1.585938 -2.320312 2.128906 -2.113281 2.671875 -1.96875 C 3.210938 -1.832031 3.742188 -1.765625 4.265625 -1.765625 C 5.035156 -1.765625 5.628906 -1.898438 6.046875 -2.171875 C 6.460938 -2.441406 6.671875 -2.828125 6.671875 -3.328125 C 6.671875 -3.847656 6.457031 -4.238281 6.03125 -4.5 C 5.601562 -4.769531 4.976562 -4.90625 4.15625 -4.90625 L 2.984375 -4.90625 L 2.984375 -6.78125 L 4.21875 -6.78125 C 4.945312 -6.78125 5.488281 -6.894531 5.84375 -7.125 C 6.207031 -7.363281 6.390625 -7.71875 6.390625 -8.1875 C 6.390625 -8.625 6.210938 -8.957031 5.859375 -9.1875 C 5.515625 -9.425781 5.023438 -9.546875 4.390625 -9.546875 C 3.921875 -9.546875 3.441406 -9.492188 2.953125 -9.390625 C 2.472656 -9.285156 2 -9.128906 1.53125 -8.921875 L 1.53125 -11.0625 C 2.101562 -11.226562 2.671875 -11.347656 3.234375 -11.421875 C 3.804688 -11.503906 4.367188 -11.546875 4.921875 -11.546875 C 6.390625 -11.546875 7.488281 -11.300781 8.21875 -10.8125 C 8.957031 -10.332031 9.328125 -9.609375 9.328125 -8.640625 C 9.328125 -7.972656 9.148438 -7.425781 8.796875 -7 C 8.453125 -6.582031 7.9375 -6.285156 7.25 -6.109375 Z "/>
</symbol>
<symbol overflow="visible" id="glyph0-3">
<path style="stroke:none;" d=""/>
</symbol>
<symbol overflow="visible" id="glyph0-4">
<path style="stroke:none;" d="M 4.359375 -9.140625 L 4.359375 -2.21875 L 5.40625 -2.21875 C 6.601562 -2.21875 7.515625 -2.507812 8.140625 -3.09375 C 8.773438 -3.6875 9.09375 -4.550781 9.09375 -5.6875 C 9.09375 -6.8125 8.773438 -7.664062 8.140625 -8.25 C 7.515625 -8.84375 6.601562 -9.140625 5.40625 -9.140625 Z M 1.421875 -11.34375 L 4.515625 -11.34375 C 6.234375 -11.34375 7.515625 -11.21875 8.359375 -10.96875 C 9.203125 -10.726562 9.925781 -10.316406 10.53125 -9.734375 C 11.0625 -9.210938 11.457031 -8.617188 11.71875 -7.953125 C 11.976562 -7.285156 12.109375 -6.53125 12.109375 -5.6875 C 12.109375 -4.832031 11.976562 -4.066406 11.71875 -3.390625 C 11.457031 -2.722656 11.0625 -2.132812 10.53125 -1.625 C 9.925781 -1.03125 9.195312 -0.609375 8.34375 -0.359375 C 7.488281 -0.117188 6.210938 0 4.515625 0 L 1.421875 0 Z "/>
</symbol>
<symbol overflow="visible" id="glyph0-5">
<path style="stroke:none;" d="M 9.796875 -4.28125 L 9.796875 -3.5 L 3.4375 -3.5 C 3.507812 -2.863281 3.738281 -2.382812 4.125 -2.0625 C 4.519531 -1.75 5.078125 -1.59375 5.796875 -1.59375 C 6.367188 -1.59375 6.953125 -1.675781 7.546875 -1.84375 C 8.148438 -2.007812 8.769531 -2.265625 9.40625 -2.609375 L 9.40625 -0.515625 C 8.757812 -0.273438 8.113281 -0.09375 7.46875 0.03125 C 6.820312 0.15625 6.179688 0.21875 5.546875 0.21875 C 4.003906 0.21875 2.804688 -0.171875 1.953125 -0.953125 C 1.097656 -1.734375 0.671875 -2.832031 0.671875 -4.25 C 0.671875 -5.632812 1.085938 -6.722656 1.921875 -7.515625 C 2.765625 -8.316406 3.921875 -8.71875 5.390625 -8.71875 C 6.722656 -8.71875 7.789062 -8.3125 8.59375 -7.5 C 9.394531 -6.695312 9.796875 -5.625 9.796875 -4.28125 Z M 7 -5.1875 C 7 -5.695312 6.847656 -6.109375 6.546875 -6.421875 C 6.253906 -6.742188 5.863281 -6.90625 5.375 -6.90625 C 4.84375 -6.90625 4.410156 -6.753906 4.078125 -6.453125 C 3.753906 -6.160156 3.550781 -5.738281 3.46875 -5.1875 Z "/>
</symbol>
<symbol overflow="visible" id="glyph0-6">
<path style="stroke:none;" d="M 7.953125 -8.25 L 7.953125 -6.171875 C 7.367188 -6.421875 6.804688 -6.601562 6.265625 -6.71875 C 5.722656 -6.84375 5.210938 -6.90625 4.734375 -6.90625 C 4.210938 -6.90625 3.828125 -6.835938 3.578125 -6.703125 C 3.328125 -6.578125 3.203125 -6.378906 3.203125 -6.109375 C 3.203125 -5.898438 3.296875 -5.734375 3.484375 -5.609375 C 3.679688 -5.492188 4.023438 -5.410156 4.515625 -5.359375 L 5 -5.28125 C 6.382812 -5.101562 7.316406 -4.8125 7.796875 -4.40625 C 8.285156 -4.007812 8.53125 -3.375 8.53125 -2.5 C 8.53125 -1.59375 8.191406 -0.910156 7.515625 -0.453125 C 6.847656 -0.00390625 5.851562 0.21875 4.53125 0.21875 C 3.96875 0.21875 3.382812 0.171875 2.78125 0.078125 C 2.1875 -0.00390625 1.570312 -0.132812 0.9375 -0.3125 L 0.9375 -2.375 C 1.476562 -2.113281 2.03125 -1.914062 2.59375 -1.78125 C 3.164062 -1.65625 3.75 -1.59375 4.34375 -1.59375 C 4.875 -1.59375 5.269531 -1.664062 5.53125 -1.8125 C 5.800781 -1.957031 5.9375 -2.175781 5.9375 -2.46875 C 5.9375 -2.707031 5.84375 -2.882812 5.65625 -3 C 5.476562 -3.125 5.113281 -3.21875 4.5625 -3.28125 L 4.078125 -3.34375 C 2.867188 -3.5 2.019531 -3.78125 1.53125 -4.1875 C 1.050781 -4.59375 0.8125 -5.21875 0.8125 -6.0625 C 0.8125 -6.957031 1.117188 -7.625 1.734375 -8.0625 C 2.347656 -8.5 3.296875 -8.71875 4.578125 -8.71875 C 5.078125 -8.71875 5.601562 -8.675781 6.15625 -8.59375 C 6.707031 -8.519531 7.304688 -8.40625 7.953125 -8.25 Z "/>
</symbol>
<symbol overflow="visible" id="glyph0-7">
<path style="stroke:none;" d="M 1.3125 -8.515625 L 4.03125 -8.515625 L 4.03125 0 L 1.3125 0 Z M 1.3125 -11.828125 L 4.03125 -11.828125 L 4.03125 -9.609375 L 1.3125 -9.609375 Z "/>
</symbol>
<symbol overflow="visible" id="glyph0-8">
<path style="stroke:none;" d="M 7.09375 -1.4375 C 6.71875 -0.945312 6.304688 -0.582031 5.859375 -0.34375 C 5.410156 -0.113281 4.890625 0 4.296875 0 C 3.253906 0 2.394531 -0.40625 1.71875 -1.21875 C 1.039062 -2.039062 0.703125 -3.085938 0.703125 -4.359375 C 0.703125 -5.628906 1.039062 -6.671875 1.71875 -7.484375 C 2.394531 -8.296875 3.253906 -8.703125 4.296875 -8.703125 C 4.890625 -8.703125 5.410156 -8.582031 5.859375 -8.34375 C 6.304688 -8.113281 6.71875 -7.75 7.09375 -7.25 L 7.09375 -8.515625 L 9.828125 -8.515625 L 9.828125 -0.859375 C 9.828125 0.503906 9.394531 1.546875 8.53125 2.265625 C 7.664062 2.992188 6.414062 3.359375 4.78125 3.359375 C 4.25 3.359375 3.734375 3.316406 3.234375 3.234375 C 2.742188 3.148438 2.242188 3.023438 1.734375 2.859375 L 1.734375 0.75 C 2.210938 1.019531 2.679688 1.222656 3.140625 1.359375 C 3.597656 1.492188 4.054688 1.5625 4.515625 1.5625 C 5.398438 1.5625 6.050781 1.363281 6.46875 0.96875 C 6.882812 0.582031 7.09375 -0.0234375 7.09375 -0.859375 Z M 5.296875 -6.734375 C 4.734375 -6.734375 4.296875 -6.523438 3.984375 -6.109375 C 3.671875 -5.703125 3.515625 -5.117188 3.515625 -4.359375 C 3.515625 -3.578125 3.664062 -2.984375 3.96875 -2.578125 C 4.28125 -2.171875 4.722656 -1.96875 5.296875 -1.96875 C 5.867188 -1.96875 6.3125 -2.175781 6.625 -2.59375 C 6.9375 -3.007812 7.09375 -3.597656 7.09375 -4.359375 C 7.09375 -5.117188 6.9375 -5.703125 6.625 -6.109375 C 6.3125 -6.523438 5.867188 -6.734375 5.296875 -6.734375 Z "/>
</symbol>
<symbol overflow="visible" id="glyph0-9">
<path style="stroke:none;" d="M 9.859375 -5.1875 L 9.859375 0 L 7.125 0 L 7.125 -3.96875 C 7.125 -4.695312 7.109375 -5.203125 7.078125 -5.484375 C 7.046875 -5.765625 6.988281 -5.972656 6.90625 -6.109375 C 6.800781 -6.285156 6.65625 -6.421875 6.46875 -6.515625 C 6.289062 -6.617188 6.082031 -6.671875 5.84375 -6.671875 C 5.28125 -6.671875 4.835938 -6.445312 4.515625 -6 C 4.191406 -5.5625 4.03125 -4.957031 4.03125 -4.1875 L 4.03125 0 L 1.3125 0 L 1.3125 -8.515625 L 4.03125 -8.515625 L 4.03125 -7.265625 C 4.4375 -7.765625 4.867188 -8.128906 5.328125 -8.359375 C 5.796875 -8.597656 6.304688 -8.71875 6.859375 -8.71875 C 7.847656 -8.71875 8.59375 -8.414062 9.09375 -7.8125 C 9.601562 -7.207031 9.859375 -6.332031 9.859375 -5.1875 Z "/>
</symbol>
<symbol overflow="visible" id="glyph0-10">
<path style="stroke:none;" d="M 1.421875 -11.34375 L 9.328125 -11.34375 L 9.328125 -9.140625 L 4.359375 -9.140625 L 4.359375 -7.015625 L 9.03125 -7.015625 L 9.03125 -4.8125 L 4.359375 -4.8125 L 4.359375 -2.21875 L 9.484375 -2.21875 L 9.484375 0 L 1.421875 0 Z "/>
</symbol>
<symbol overflow="visible" id="glyph0-11">
<path style="stroke:none;" d="M 7.09375 -7.265625 L 7.09375 -11.828125 L 9.828125 -11.828125 L 9.828125 0 L 7.09375 0 L 7.09375 -1.234375 C 6.71875 -0.734375 6.304688 -0.363281 5.859375 -0.125 C 5.410156 0.101562 4.890625 0.21875 4.296875 0.21875 C 3.242188 0.21875 2.378906 -0.195312 1.703125 -1.03125 C 1.035156 -1.863281 0.703125 -2.9375 0.703125 -4.25 C 0.703125 -5.5625 1.035156 -6.632812 1.703125 -7.46875 C 2.378906 -8.300781 3.242188 -8.71875 4.296875 -8.71875 C 4.878906 -8.71875 5.394531 -8.597656 5.84375 -8.359375 C 6.300781 -8.128906 6.71875 -7.765625 7.09375 -7.265625 Z M 5.296875 -1.75 C 5.878906 -1.75 6.320312 -1.960938 6.625 -2.390625 C 6.9375 -2.816406 7.09375 -3.4375 7.09375 -4.25 C 7.09375 -5.0625 6.9375 -5.675781 6.625 -6.09375 C 6.320312 -6.519531 5.878906 -6.734375 5.296875 -6.734375 C 4.722656 -6.734375 4.28125 -6.519531 3.96875 -6.09375 C 3.664062 -5.675781 3.515625 -5.0625 3.515625 -4.25 C 3.515625 -3.4375 3.664062 -2.816406 3.96875 -2.390625 C 4.28125 -1.960938 4.722656 -1.75 5.296875 -1.75 Z "/>
</symbol>
<symbol overflow="visible" id="glyph0-12">
<path style="stroke:none;" d="M 4.28125 -10.921875 L 4.28125 -8.515625 L 7.078125 -8.515625 L 7.078125 -6.5625 L 4.28125 -6.5625 L 4.28125 -2.953125 C 4.28125 -2.554688 4.359375 -2.289062 4.515625 -2.15625 C 4.671875 -2.019531 4.984375 -1.953125 5.453125 -1.953125 L 6.84375 -1.953125 L 6.84375 0 L 4.515625 0 C 3.441406 0 2.679688 -0.222656 2.234375 -0.671875 C 1.785156 -1.117188 1.5625 -1.878906 1.5625 -2.953125 L 1.5625 -6.5625 L 0.203125 -6.5625 L 0.203125 -8.515625 L 1.5625 -8.515625 L 1.5625 -10.921875 Z "/>
</symbol>
<symbol overflow="visible" id="glyph0-13">
<path style="stroke:none;" d="M 5.359375 -6.765625 C 4.753906 -6.765625 4.289062 -6.546875 3.96875 -6.109375 C 3.65625 -5.679688 3.5 -5.0625 3.5 -4.25 C 3.5 -3.4375 3.65625 -2.8125 3.96875 -2.375 C 4.289062 -1.9375 4.753906 -1.71875 5.359375 -1.71875 C 5.953125 -1.71875 6.40625 -1.9375 6.71875 -2.375 C 7.03125 -2.8125 7.1875 -3.4375 7.1875 -4.25 C 7.1875 -5.0625 7.03125 -5.679688 6.71875 -6.109375 C 6.40625 -6.546875 5.953125 -6.765625 5.359375 -6.765625 Z M 5.359375 -8.71875 C 6.816406 -8.71875 7.957031 -8.320312 8.78125 -7.53125 C 9.601562 -6.738281 10.015625 -5.644531 10.015625 -4.25 C 10.015625 -2.851562 9.601562 -1.757812 8.78125 -0.96875 C 7.957031 -0.175781 6.816406 0.21875 5.359375 0.21875 C 3.890625 0.21875 2.738281 -0.175781 1.90625 -0.96875 C 1.082031 -1.757812 0.671875 -2.851562 0.671875 -4.25 C 0.671875 -5.644531 1.082031 -6.738281 1.90625 -7.53125 C 2.738281 -8.320312 3.890625 -8.71875 5.359375 -8.71875 Z "/>
</symbol>
<symbol overflow="visible" id="glyph0-14">
<path style="stroke:none;" d="M 7.625 -6.1875 C 7.382812 -6.300781 7.144531 -6.382812 6.90625 -6.4375 C 6.675781 -6.488281 6.441406 -6.515625 6.203125 -6.515625 C 5.503906 -6.515625 4.96875 -6.289062 4.59375 -5.84375 C 4.21875 -5.394531 4.03125 -4.753906 4.03125 -3.921875 L 4.03125 0 L 1.3125 0 L 1.3125 -8.515625 L 4.03125 -8.515625 L 4.03125 -7.109375 C 4.375 -7.671875 4.769531 -8.078125 5.21875 -8.328125 C 5.675781 -8.585938 6.222656 -8.71875 6.859375 -8.71875 C 6.953125 -8.71875 7.050781 -8.710938 7.15625 -8.703125 C 7.257812 -8.691406 7.414062 -8.675781 7.625 -8.65625 Z "/>
</symbol>
</g>
</defs>
<g id="surface22">
<g style="fill:rgb(100%,100%,100%);fill-opacity:1;">
  <use xlink:href="#glyph0-1" x="30" y="34.439453"/>
  <use xlink:href="#glyph0-2" x="41" y="34.439453"/>
  <use xlink:href="#glyph0-3" x="52" y="34.439453"/>
  <use xlink:href="#glyph0-4" x="57" y="34.439453"/>
  <use xlink:href="#glyph0-5" x="70" y="34.439453"/>
  <use xlink:href="#glyph0-6" x="81" y="34.439453"/>
  <use xlink:href="#glyph0-7" x="90" y="34.439453"/>
  <use xlink:href="#glyph0-8" x="95" y="34.439453"/>
  <use xlink:href="#glyph0-9" x="106" y="34.439453"/>
  <use xlink:href="#glyph0-3" x="117" y="34.439453"/>
  <use xlink:href="#glyph0-10" x="122" y="34.439453"/>
  <use xlink:href="#glyph0-11" x="133" y="34.439453"/>
  <use xlink:href="#glyph0-7" x="144" y="34.439453"/>
  <use xlink:href="#glyph0-12" x="149" y="34.439453"/>
  <use xlink:href="#glyph0-13" x="156" y="34.439453"/>
  <use xlink:href="#glyph0-14" x="167" y="34.439453"/>
  <use xlink:href="#glyph0-6" x="175" y="34.439453"/>
</g>
</g>
</svg>
