<?xml version="1.0" encoding="UTF-8"?>
<svg xmlns="http://www.w3.org/2000/svg" xmlns:xlink="http://www.w3.org/1999/xlink" width="1920pt" height="1080pt" viewBox="0 0 1920 1080" version="1.1">
<defs>
<g>
<symbol overflow="visible" id="glyph0-0">
<path style="stroke:none;" d="M 0.25 0.890625 L 0.25 -3.53125 L 2.75 -3.53125 L 2.75 0.890625 Z M 0.53125 0.609375 L 2.46875 0.609375 L 2.46875 -3.25 L 0.53125 -3.25 Z "/>
</symbol>
<symbol overflow="visible" id="glyph0-1">
<path style="stroke:none;" d="M 0.390625 -0.171875 L 0.390625 -1.046875 L 0.703125 -1.046875 C 0.742188 -0.765625 0.851562 -0.554688 1.03125 -0.421875 C 1.207031 -0.285156 1.453125 -0.21875 1.765625 -0.21875 C 2.015625 -0.21875 2.203125 -0.265625 2.328125 -0.359375 C 2.460938 -0.460938 2.53125 -0.609375 2.53125 -0.796875 C 2.53125 -0.941406 2.484375 -1.050781 2.390625 -1.125 C 2.304688 -1.207031 2.125 -1.285156 1.84375 -1.359375 L 1.296875 -1.5 C 0.941406 -1.582031 0.691406 -1.703125 0.546875 -1.859375 C 0.398438 -2.023438 0.328125 -2.257812 0.328125 -2.5625 C 0.328125 -2.925781 0.445312 -3.207031 0.6875 -3.40625 C 0.925781 -3.613281 1.265625 -3.71875 1.703125 -3.71875 C 1.910156 -3.71875 2.128906 -3.695312 2.359375 -3.65625 C 2.585938 -3.625 2.828125 -3.570312 3.078125 -3.5 L 3.078125 -2.6875 L 2.765625 -2.6875 C 2.722656 -2.9375 2.617188 -3.117188 2.453125 -3.234375 C 2.296875 -3.359375 2.070312 -3.421875 1.78125 -3.421875 C 1.539062 -3.421875 1.359375 -3.378906 1.234375 -3.296875 C 1.109375 -3.210938 1.046875 -3.085938 1.046875 -2.921875 C 1.046875 -2.765625 1.085938 -2.644531 1.171875 -2.5625 C 1.253906 -2.488281 1.460938 -2.410156 1.796875 -2.328125 L 2.34375 -2.1875 C 2.6875 -2.101562 2.929688 -1.972656 3.078125 -1.796875 C 3.234375 -1.617188 3.3125 -1.375 3.3125 -1.0625 C 3.3125 -0.6875 3.179688 -0.398438 2.921875 -0.203125 C 2.671875 -0.015625 2.300781 0.078125 1.8125 0.078125 C 1.570312 0.078125 1.332031 0.0546875 1.09375 0.015625 C 0.863281 -0.0234375 0.628906 -0.0859375 0.390625 -0.171875 Z "/>
</symbol>
<symbol overflow="visible" id="glyph0-2">
<path style="stroke:none;" d="M 2.8125 -0.8125 C 2.757812 -0.507812 2.632812 -0.285156 2.4375 -0.140625 C 2.25 0.00390625 1.988281 0.078125 1.65625 0.078125 C 1.195312 0.078125 0.835938 -0.0390625 0.578125 -0.28125 C 0.328125 -0.519531 0.203125 -0.859375 0.203125 -1.296875 C 0.203125 -1.722656 0.328125 -2.054688 0.578125 -2.296875 C 0.828125 -2.546875 1.175781 -2.671875 1.625 -2.671875 C 1.800781 -2.671875 1.984375 -2.648438 2.171875 -2.609375 C 2.359375 -2.578125 2.546875 -2.53125 2.734375 -2.46875 L 2.734375 -1.734375 L 2.46875 -1.734375 C 2.4375 -1.960938 2.367188 -2.128906 2.265625 -2.234375 C 2.160156 -2.335938 2.019531 -2.390625 1.84375 -2.390625 C 1.59375 -2.390625 1.414062 -2.304688 1.3125 -2.140625 C 1.21875 -1.984375 1.171875 -1.703125 1.171875 -1.296875 C 1.171875 -0.898438 1.21875 -0.617188 1.3125 -0.453125 C 1.414062 -0.285156 1.578125 -0.203125 1.796875 -0.203125 C 1.972656 -0.203125 2.113281 -0.253906 2.21875 -0.359375 C 2.320312 -0.460938 2.390625 -0.613281 2.421875 -0.8125 Z "/>
</symbol>
<symbol overflow="visible" id="glyph0-3">
<path style="stroke:none;" d="M 2.6875 -2.625 L 2.6875 -1.84375 L 2.40625 -1.84375 C 2.394531 -1.988281 2.359375 -2.09375 2.296875 -2.15625 C 2.234375 -2.226562 2.140625 -2.265625 2.015625 -2.265625 C 1.828125 -2.265625 1.675781 -2.179688 1.5625 -2.015625 C 1.457031 -1.847656 1.40625 -1.617188 1.40625 -1.328125 L 1.40625 -0.296875 L 1.875 -0.296875 L 1.875 0 L 0.171875 0 L 0.171875 -0.296875 L 0.546875 -0.296875 L 0.546875 -2.296875 L 0.140625 -2.296875 L 0.140625 -2.59375 L 1.40625 -2.59375 L 1.40625 -2.140625 C 1.488281 -2.316406 1.597656 -2.445312 1.734375 -2.53125 C 1.878906 -2.625 2.050781 -2.671875 2.25 -2.671875 C 2.300781 -2.671875 2.363281 -2.664062 2.4375 -2.65625 C 2.507812 -2.644531 2.59375 -2.632812 2.6875 -2.625 Z "/>
</symbol>
<symbol overflow="visible" id="glyph0-4">
<path style="stroke:none;" d="M 1.671875 -0.203125 C 1.847656 -0.203125 1.972656 -0.28125 2.046875 -0.4375 C 2.128906 -0.59375 2.171875 -0.878906 2.171875 -1.296875 C 2.171875 -1.710938 2.132812 -2 2.0625 -2.15625 C 1.988281 -2.3125 1.859375 -2.390625 1.671875 -2.390625 C 1.484375 -2.390625 1.351562 -2.3125 1.28125 -2.15625 C 1.207031 -2 1.171875 -1.710938 1.171875 -1.296875 C 1.171875 -0.878906 1.207031 -0.59375 1.28125 -0.4375 C 1.351562 -0.28125 1.484375 -0.203125 1.671875 -0.203125 Z M 1.671875 0.078125 C 1.210938 0.078125 0.851562 -0.0390625 0.59375 -0.28125 C 0.332031 -0.53125 0.203125 -0.867188 0.203125 -1.296875 C 0.203125 -1.722656 0.332031 -2.054688 0.59375 -2.296875 C 0.851562 -2.546875 1.210938 -2.671875 1.671875 -2.671875 C 2.128906 -2.671875 2.488281 -2.546875 2.75 -2.296875 C 3.007812 -2.054688 3.140625 -1.722656 3.140625 -1.296875 C 3.140625 -0.867188 3.007812 -0.53125 2.75 -0.28125 C 2.488281 -0.0390625 2.128906 0.078125 1.671875 0.078125 Z "/>
</symbol>
<symbol overflow="visible" id="glyph0-5">
<path style="stroke:none;" d="M 1.40625 -0.296875 L 1.78125 -0.296875 L 1.78125 0 L 0.171875 0 L 0.171875 -0.296875 L 0.546875 -0.296875 L 0.546875 -3.5 L 0.171875 -3.5 L 0.171875 -3.796875 L 1.40625 -3.796875 Z "/>
</symbol>
</g>
</defs>
<g id="surface242">
<g style="fill:rgb(13.333333%,82.745098%,93.333333%);fill-opacity:1;">
  <use xlink:href="#glyph0-1" x="30" y="24.695312"/>
  <use xlink:href="#glyph0-2" x="34" y="24.695312"/>
  <use xlink:href="#glyph0-3" x="37" y="24.695312"/>
  <use xlink:href="#glyph0-4" x="40" y="24.695312"/>
  <use xlink:href="#glyph0-5" x="43" y="24.695312"/>
  <use xlink:href="#glyph0-5" x="45" y="24.695312"/>
</g>
</g>
</svg>
