<?xml version="1.0" encoding="UTF-8"?>
<svg xmlns="http://www.w3.org/2000/svg" xmlns:xlink="http://www.w3.org/1999/xlink" width="1920pt" height="1080pt" viewBox="0 0 1920 1080" version="1.1">
<defs>
<g>
<symbol overflow="visible" id="glyph0-0">
<path style="stroke:none;" d="M 0.15625 0.546875 L 0.15625 -2.15625 L 1.6875 -2.15625 L 1.6875 0.546875 Z M 0.328125 0.375 L 1.515625 0.375 L 1.515625 -1.984375 L 0.328125 -1.984375 Z "/>
</symbol>
<symbol overflow="visible" id="glyph0-1">
<path style="stroke:none;" d="M 0.359375 -0.15625 L 0.359375 -2.171875 L 0.09375 -2.171875 L 0.09375 -2.328125 L 0.625 -2.328125 L 0.625 -1.34375 C 0.675781 -1.4375 0.742188 -1.507812 0.828125 -1.5625 C 0.910156 -1.613281 1.015625 -1.640625 1.140625 -1.640625 C 1.335938 -1.640625 1.5 -1.5625 1.625 -1.40625 C 1.75 -1.25 1.8125 -1.046875 1.8125 -0.796875 C 1.8125 -0.546875 1.75 -0.34375 1.625 -0.1875 C 1.5 -0.03125 1.335938 0.046875 1.140625 0.046875 C 1.015625 0.046875 0.910156 0.0234375 0.828125 -0.015625 C 0.742188 -0.0664062 0.675781 -0.144531 0.625 -0.25 L 0.625 0 L 0.09375 0 L 0.09375 -0.15625 Z M 0.625 -0.71875 C 0.625 -0.519531 0.660156 -0.367188 0.734375 -0.265625 C 0.804688 -0.171875 0.914062 -0.125 1.0625 -0.125 C 1.195312 -0.125 1.300781 -0.179688 1.375 -0.296875 C 1.445312 -0.410156 1.484375 -0.578125 1.484375 -0.796875 C 1.484375 -1.015625 1.445312 -1.179688 1.375 -1.296875 C 1.300781 -1.410156 1.195312 -1.46875 1.0625 -1.46875 C 0.914062 -1.46875 0.804688 -1.414062 0.734375 -1.3125 C 0.660156 -1.207031 0.625 -1.0625 0.625 -0.875 Z "/>
</symbol>
<symbol overflow="visible" id="glyph0-2">
<path style="stroke:none;" d="M 1.21875 -0.5 L 1.21875 -0.828125 L 0.859375 -0.828125 C 0.722656 -0.828125 0.617188 -0.796875 0.546875 -0.734375 C 0.484375 -0.679688 0.453125 -0.597656 0.453125 -0.484375 C 0.453125 -0.367188 0.484375 -0.273438 0.546875 -0.203125 C 0.617188 -0.140625 0.710938 -0.109375 0.828125 -0.109375 C 0.953125 -0.109375 1.046875 -0.144531 1.109375 -0.21875 C 1.179688 -0.289062 1.21875 -0.382812 1.21875 -0.5 Z M 1.5 -1 L 1.5 -0.15625 L 1.734375 -0.15625 L 1.734375 0 L 1.21875 0 L 1.21875 -0.171875 C 1.15625 -0.0976562 1.082031 -0.0390625 1 0 C 0.925781 0.03125 0.835938 0.046875 0.734375 0.046875 C 0.554688 0.046875 0.414062 0 0.3125 -0.09375 C 0.207031 -0.1875 0.15625 -0.316406 0.15625 -0.484375 C 0.15625 -0.640625 0.210938 -0.765625 0.328125 -0.859375 C 0.453125 -0.953125 0.617188 -1 0.828125 -1 L 1.21875 -1 L 1.21875 -1.109375 C 1.21875 -1.222656 1.179688 -1.3125 1.109375 -1.375 C 1.035156 -1.445312 0.929688 -1.484375 0.796875 -1.484375 C 0.691406 -1.484375 0.601562 -1.457031 0.53125 -1.40625 C 0.46875 -1.351562 0.429688 -1.28125 0.421875 -1.1875 L 0.28125 -1.1875 L 0.28125 -1.515625 C 0.375 -1.554688 0.460938 -1.585938 0.546875 -1.609375 C 0.640625 -1.628906 0.726562 -1.640625 0.8125 -1.640625 C 1.039062 -1.640625 1.210938 -1.582031 1.328125 -1.46875 C 1.441406 -1.363281 1.5 -1.207031 1.5 -1 Z "/>
</symbol>
<symbol overflow="visible" id="glyph0-3">
<path style="stroke:none;" d="M 1.578125 -0.484375 C 1.535156 -0.304688 1.457031 -0.171875 1.34375 -0.078125 C 1.238281 0.00390625 1.097656 0.046875 0.921875 0.046875 C 0.691406 0.046875 0.503906 -0.03125 0.359375 -0.1875 C 0.222656 -0.34375 0.15625 -0.546875 0.15625 -0.796875 C 0.15625 -1.046875 0.222656 -1.25 0.359375 -1.40625 C 0.503906 -1.5625 0.691406 -1.640625 0.921875 -1.640625 C 1.023438 -1.640625 1.125 -1.625 1.21875 -1.59375 C 1.320312 -1.570312 1.421875 -1.535156 1.515625 -1.484375 L 1.515625 -1.078125 L 1.359375 -1.078125 C 1.335938 -1.222656 1.289062 -1.328125 1.21875 -1.390625 C 1.15625 -1.453125 1.054688 -1.484375 0.921875 -1.484375 C 0.773438 -1.484375 0.660156 -1.425781 0.578125 -1.3125 C 0.503906 -1.195312 0.46875 -1.023438 0.46875 -0.796875 C 0.46875 -0.566406 0.503906 -0.394531 0.578125 -0.28125 C 0.660156 -0.164062 0.773438 -0.109375 0.921875 -0.109375 C 1.046875 -0.109375 1.140625 -0.140625 1.203125 -0.203125 C 1.273438 -0.265625 1.328125 -0.359375 1.359375 -0.484375 Z "/>
</symbol>
<symbol overflow="visible" id="glyph0-4">
<path style="stroke:none;" d="M 0.875 0 L 0.109375 0 L 0.109375 -0.15625 L 0.359375 -0.15625 L 0.359375 -2.171875 L 0.09375 -2.171875 L 0.09375 -2.328125 L 0.625 -2.328125 L 0.625 -0.8125 L 1.296875 -1.421875 L 1.0625 -1.421875 L 1.0625 -1.59375 L 1.78125 -1.59375 L 1.78125 -1.421875 L 1.515625 -1.421875 L 1.046875 -1 L 1.640625 -0.15625 L 1.875 -0.15625 L 1.875 0 L 1.09375 0 L 1.09375 -0.15625 L 1.328125 -0.15625 L 0.84375 -0.8125 L 0.625 -0.609375 L 0.625 -0.15625 L 0.875 -0.15625 Z "/>
</symbol>
</g>
</defs>
<g id="surface107">
<g style="fill:rgb(76.862745%,70.980392%,99.215686%);fill-opacity:1;">
  <use xlink:href="#glyph0-1" x="30" y="22.835938"/>
  <use xlink:href="#glyph0-2" x="32" y="22.835938"/>
  <use xlink:href="#glyph0-3" x="34" y="22.835938"/>
  <use xlink:href="#glyph0-4" x="36" y="22.835938"/>
</g>
</g>
</svg>
