<?xml version="1.0" encoding="UTF-8"?>
<svg xmlns="http://www.w3.org/2000/svg" xmlns:xlink="http://www.w3.org/1999/xlink" width="854pt" height="480pt" viewBox="0 0 854 480" version="1.1">
<defs>
<g>
<symbol overflow="visible" id="glyph0-0">
<path style="stroke:none;" d="M 0.21875 0.78125 L 0.21875 -3.125 L 2.4375 -3.125 L 2.4375 0.78125 Z M 0.46875 0.53125 L 2.1875 0.53125 L 2.1875 -2.875 L 0.46875 -2.875 Z "/>
</symbol>
<symbol overflow="visible" id="glyph0-1">
<path style="stroke:none;" d="M 0.40625 -3.234375 L 1.234375 -3.234375 L 1.234375 -1.296875 C 1.234375 -1.023438 1.273438 -0.832031 1.359375 -0.71875 C 1.453125 -0.601562 1.597656 -0.546875 1.796875 -0.546875 C 1.992188 -0.546875 2.132812 -0.601562 2.21875 -0.71875 C 2.3125 -0.832031 2.359375 -1.023438 2.359375 -1.296875 L 2.359375 -3.234375 L 3.203125 -3.234375 L 3.203125 -1.296875 C 3.203125 -0.835938 3.082031 -0.492188 2.84375 -0.265625 C 2.613281 -0.046875 2.265625 0.0625 1.796875 0.0625 C 1.328125 0.0625 0.976562 -0.046875 0.75 -0.265625 C 0.519531 -0.492188 0.40625 -0.835938 0.40625 -1.296875 Z "/>
</symbol>
<symbol overflow="visible" id="glyph0-2">
<path style="stroke:none;" d="M 0.40625 -3.234375 L 1.46875 -3.234375 L 2.203125 -1.5 L 2.953125 -3.234375 L 4 -3.234375 L 4 0 L 3.21875 0 L 3.21875 -2.359375 L 2.46875 -0.625 L 1.9375 -0.625 L 1.203125 -2.359375 L 1.203125 0 L 0.40625 0 Z "/>
</symbol>
<symbol overflow="visible" id="glyph0-3">
<path style="stroke:none;" d="M 0.40625 -3.234375 L 1.234375 -3.234375 L 1.234375 -0.625 L 2.703125 -0.625 L 2.703125 0 L 0.40625 0 Z "/>
</symbol>
</g>
</defs>
<g id="surface62">
<g style="fill:rgb(100%,100%,100%);fill-opacity:1;">
  <use xlink:href="#glyph0-1" x="30" y="24.125"/>
  <use xlink:href="#glyph0-2" x="34" y="24.125"/>
  <use xlink:href="#glyph0-3" x="38" y="24.125"/>
</g>
</g>
</svg>
