<?xml version="1.0" encoding="UTF-8"?>
<svg xmlns="http://www.w3.org/2000/svg" xmlns:xlink="http://www.w3.org/1999/xlink" width="1920pt" height="1080pt" viewBox="0 0 1920 1080" version="1.1">
<defs>
<g>
<symbol overflow="visible" id="glyph0-0">
<path style="stroke:none;" d="M 0.21875 0.78125 L 0.21875 -3.125 L 2.4375 -3.125 L 2.4375 0.78125 Z M 0.46875 0.53125 L 2.1875 0.53125 L 2.1875 -2.875 L 0.46875 -2.875 Z "/>
</symbol>
<symbol overflow="visible" id="glyph0-1">
<path style="stroke:none;" d="M 3.3125 -0.921875 C 3.21875 -0.585938 3.0625 -0.335938 2.84375 -0.171875 C 2.625 -0.015625 2.328125 0.0625 1.953125 0.0625 C 1.410156 0.0625 0.976562 -0.0859375 0.65625 -0.390625 C 0.34375 -0.691406 0.1875 -1.097656 0.1875 -1.609375 C 0.1875 -2.128906 0.34375 -2.539062 0.65625 -2.84375 C 0.976562 -3.144531 1.410156 -3.296875 1.953125 -3.296875 C 2.148438 -3.296875 2.351562 -3.269531 2.5625 -3.21875 C 2.769531 -3.175781 2.988281 -3.109375 3.21875 -3.015625 L 3.21875 -2.21875 L 2.9375 -2.21875 C 2.882812 -2.488281 2.78125 -2.691406 2.625 -2.828125 C 2.476562 -2.960938 2.285156 -3.03125 2.046875 -3.03125 C 1.734375 -3.03125 1.5 -2.910156 1.34375 -2.671875 C 1.1875 -2.441406 1.109375 -2.085938 1.109375 -1.609375 C 1.109375 -1.128906 1.1875 -0.773438 1.34375 -0.546875 C 1.5 -0.316406 1.734375 -0.203125 2.046875 -0.203125 C 2.265625 -0.203125 2.441406 -0.257812 2.578125 -0.375 C 2.710938 -0.5 2.8125 -0.679688 2.875 -0.921875 Z "/>
</symbol>
<symbol overflow="visible" id="glyph0-2">
<path style="stroke:none;" d="M 1.484375 -0.1875 C 1.640625 -0.1875 1.75 -0.253906 1.8125 -0.390625 C 1.882812 -0.523438 1.921875 -0.78125 1.921875 -1.15625 C 1.921875 -1.519531 1.890625 -1.769531 1.828125 -1.90625 C 1.765625 -2.050781 1.648438 -2.125 1.484375 -2.125 C 1.316406 -2.125 1.195312 -2.050781 1.125 -1.90625 C 1.0625 -1.769531 1.03125 -1.519531 1.03125 -1.15625 C 1.03125 -0.789062 1.0625 -0.535156 1.125 -0.390625 C 1.195312 -0.253906 1.316406 -0.1875 1.484375 -0.1875 Z M 1.484375 0.0625 C 1.078125 0.0625 0.757812 -0.0390625 0.53125 -0.25 C 0.300781 -0.46875 0.1875 -0.769531 0.1875 -1.15625 C 0.1875 -1.53125 0.300781 -1.820312 0.53125 -2.03125 C 0.757812 -2.25 1.078125 -2.359375 1.484375 -2.359375 C 1.890625 -2.359375 2.207031 -2.25 2.4375 -2.03125 C 2.664062 -1.820312 2.78125 -1.53125 2.78125 -1.15625 C 2.78125 -0.769531 2.664062 -0.46875 2.4375 -0.25 C 2.207031 -0.0390625 1.890625 0.0625 1.484375 0.0625 Z "/>
</symbol>
<symbol overflow="visible" id="glyph0-3">
<path style="stroke:none;" d="M 1.25 -0.265625 L 1.578125 -0.265625 L 1.578125 0 L 0.15625 0 L 0.15625 -0.265625 L 0.484375 -0.265625 L 0.484375 -3.109375 L 0.15625 -3.109375 L 0.15625 -3.375 L 1.25 -3.375 Z "/>
</symbol>
<symbol overflow="visible" id="glyph0-4">
<path style="stroke:none;" d="M 2.390625 -2.328125 L 2.390625 -1.640625 L 2.140625 -1.640625 C 2.128906 -1.765625 2.09375 -1.851562 2.03125 -1.90625 C 1.976562 -1.96875 1.894531 -2 1.78125 -2 C 1.613281 -2 1.484375 -1.925781 1.390625 -1.78125 C 1.296875 -1.632812 1.25 -1.429688 1.25 -1.171875 L 1.25 -0.265625 L 1.671875 -0.265625 L 1.671875 0 L 0.15625 0 L 0.15625 -0.265625 L 0.484375 -0.265625 L 0.484375 -2.046875 L 0.125 -2.046875 L 0.125 -2.296875 L 1.25 -2.296875 L 1.25 -1.890625 C 1.320312 -2.054688 1.421875 -2.175781 1.546875 -2.25 C 1.671875 -2.320312 1.820312 -2.359375 2 -2.359375 C 2.039062 -2.359375 2.09375 -2.351562 2.15625 -2.34375 C 2.21875 -2.34375 2.296875 -2.335938 2.390625 -2.328125 Z "/>
</symbol>
<symbol overflow="visible" id="glyph0-5">
<path style="stroke:none;" d="M 0.203125 -0.0625 L 0.203125 -0.703125 L 0.453125 -0.703125 C 0.472656 -0.535156 0.535156 -0.40625 0.640625 -0.3125 C 0.753906 -0.226562 0.90625 -0.1875 1.09375 -0.1875 C 1.25 -0.1875 1.367188 -0.210938 1.453125 -0.265625 C 1.535156 -0.316406 1.578125 -0.394531 1.578125 -0.5 C 1.578125 -0.59375 1.546875 -0.660156 1.484375 -0.703125 C 1.429688 -0.753906 1.332031 -0.800781 1.1875 -0.84375 L 0.875 -0.921875 C 0.632812 -0.984375 0.457031 -1.066406 0.34375 -1.171875 C 0.238281 -1.285156 0.1875 -1.4375 0.1875 -1.625 C 0.1875 -1.875 0.269531 -2.054688 0.4375 -2.171875 C 0.613281 -2.296875 0.882812 -2.359375 1.25 -2.359375 C 1.382812 -2.359375 1.53125 -2.347656 1.6875 -2.328125 C 1.84375 -2.304688 2.015625 -2.273438 2.203125 -2.234375 L 2.203125 -1.640625 L 1.953125 -1.640625 C 1.941406 -1.804688 1.882812 -1.925781 1.78125 -2 C 1.6875 -2.082031 1.546875 -2.125 1.359375 -2.125 C 1.203125 -2.125 1.082031 -2.097656 1 -2.046875 C 0.925781 -1.992188 0.890625 -1.921875 0.890625 -1.828125 C 0.890625 -1.753906 0.910156 -1.691406 0.953125 -1.640625 C 0.992188 -1.597656 1.078125 -1.5625 1.203125 -1.53125 L 1.515625 -1.453125 C 1.816406 -1.378906 2.023438 -1.285156 2.140625 -1.171875 C 2.253906 -1.054688 2.3125 -0.898438 2.3125 -0.703125 C 2.3125 -0.441406 2.21875 -0.25 2.03125 -0.125 C 1.851562 0 1.566406 0.0625 1.171875 0.0625 C 1.023438 0.0625 0.875 0.0507812 0.71875 0.03125 C 0.5625 0.0078125 0.390625 -0.0195312 0.203125 -0.0625 Z "/>
</symbol>
</g>
</defs>
<g id="surface67">
<g style="fill:rgb(100%,100%,100%);fill-opacity:1;">
  <use xlink:href="#glyph0-1" x="30" y="24.172852"/>
  <use xlink:href="#glyph0-2" x="34" y="24.172852"/>
  <use xlink:href="#glyph0-3" x="37" y="24.172852"/>
  <use xlink:href="#glyph0-2" x="39" y="24.172852"/>
  <use xlink:href="#glyph0-4" x="42" y="24.172852"/>
  <use xlink:href="#glyph0-5" x="44" y="24.172852"/>
</g>
</g>
</svg>
