<?xml version="1.0" encoding="UTF-8"?>
<svg xmlns="http://www.w3.org/2000/svg" xmlns:xlink="http://www.w3.org/1999/xlink" width="1920pt" height="1080pt" viewBox="0 0 1920 1080" version="1.1">
<defs>
<g>
<symbol overflow="visible" id="glyph0-0">
<path style="stroke:none;" d="M 0.171875 0.59375 L 0.171875 -2.34375 L 1.828125 -2.34375 L 1.828125 0.59375 Z M 0.359375 0.40625 L 1.640625 0.40625 L 1.640625 -2.15625 L 0.359375 -2.15625 Z "/>
</symbol>
<symbol overflow="visible" id="glyph0-1">
<path style="stroke:none;" d="M 0.1875 0 L 0.1875 -0.171875 L 0.5 -0.171875 L 0.5 -2.25 L 0.1875 -2.25 L 0.1875 -2.421875 L 2.171875 -2.421875 L 2.171875 -1.890625 L 1.96875 -1.890625 L 1.96875 -2.21875 L 0.828125 -2.21875 L 0.828125 -1.40625 L 1.65625 -1.40625 L 1.65625 -1.71875 L 1.84375 -1.71875 L 1.84375 -0.90625 L 1.65625 -0.90625 L 1.65625 -1.21875 L 0.828125 -1.21875 L 0.828125 -0.171875 L 1.203125 -0.171875 L 1.203125 0 Z "/>
</symbol>
<symbol overflow="visible" id="glyph0-2">
<path style="stroke:none;" d="M 1.59375 -1.734375 L 1.59375 -1.296875 L 1.421875 -1.296875 C 1.410156 -1.378906 1.382812 -1.441406 1.34375 -1.484375 C 1.300781 -1.523438 1.238281 -1.546875 1.15625 -1.546875 C 1.007812 -1.546875 0.894531 -1.492188 0.8125 -1.390625 C 0.738281 -1.296875 0.703125 -1.15625 0.703125 -0.96875 L 0.703125 -0.171875 L 1.046875 -0.171875 L 1.046875 0 L 0.140625 0 L 0.140625 -0.171875 L 0.40625 -0.171875 L 0.40625 -1.5625 L 0.125 -1.5625 L 0.125 -1.734375 L 0.703125 -1.734375 L 0.703125 -1.421875 C 0.765625 -1.535156 0.835938 -1.625 0.921875 -1.6875 C 1.015625 -1.75 1.128906 -1.78125 1.265625 -1.78125 C 1.316406 -1.78125 1.367188 -1.773438 1.421875 -1.765625 C 1.472656 -1.753906 1.53125 -1.742188 1.59375 -1.734375 Z "/>
</symbol>
<symbol overflow="visible" id="glyph0-3">
<path style="stroke:none;" d="M 1.796875 -0.828125 L 0.515625 -0.828125 L 0.515625 -0.8125 C 0.515625 -0.582031 0.554688 -0.40625 0.640625 -0.28125 C 0.734375 -0.164062 0.863281 -0.109375 1.03125 -0.109375 C 1.164062 -0.109375 1.273438 -0.140625 1.359375 -0.203125 C 1.441406 -0.273438 1.5 -0.378906 1.53125 -0.515625 L 1.78125 -0.515625 C 1.726562 -0.328125 1.632812 -0.1875 1.5 -0.09375 C 1.375 0 1.207031 0.046875 1 0.046875 C 0.75 0.046875 0.546875 -0.0351562 0.390625 -0.203125 C 0.242188 -0.367188 0.171875 -0.585938 0.171875 -0.859375 C 0.171875 -1.140625 0.242188 -1.363281 0.390625 -1.53125 C 0.546875 -1.695312 0.742188 -1.78125 0.984375 -1.78125 C 1.242188 -1.78125 1.441406 -1.695312 1.578125 -1.53125 C 1.722656 -1.375 1.796875 -1.140625 1.796875 -0.828125 Z M 1.453125 -1 C 1.441406 -1.207031 1.394531 -1.359375 1.3125 -1.453125 C 1.238281 -1.554688 1.128906 -1.609375 0.984375 -1.609375 C 0.847656 -1.609375 0.738281 -1.554688 0.65625 -1.453125 C 0.582031 -1.359375 0.535156 -1.207031 0.515625 -1 Z "/>
</symbol>
</g>
</defs>
<g id="surface177">
<g style="fill:rgb(96.078431%,61.960784%,4.313725%);fill-opacity:1;">
  <use xlink:href="#glyph0-1" x="30" y="23.09375"/>
  <use xlink:href="#glyph0-2" x="32" y="23.09375"/>
  <use xlink:href="#glyph0-3" x="34" y="23.09375"/>
  <use xlink:href="#glyph0-3" x="36" y="23.09375"/>
</g>
</g>
</svg>
