<?xml version="1.0" encoding="UTF-8"?>
<svg xmlns="http://www.w3.org/2000/svg" xmlns:xlink="http://www.w3.org/1999/xlink" width="1920pt" height="1080pt" viewBox="0 0 1920 1080" version="1.1">
<defs>
<g>
<symbol overflow="visible" id="glyph0-0">
<path style="stroke:none;" d="M 0.65625 2.359375 L 0.65625 -9.390625 L 7.328125 -9.390625 L 7.328125 2.359375 Z M 1.40625 1.609375 L 6.59375 1.609375 L 6.59375 -8.65625 L 1.40625 -8.65625 Z "/>
</symbol>
<symbol overflow="visible" id="glyph0-1">
<path style="stroke:none;" d="M 2.421875 0 L 2.421875 -0.78125 L 3.703125 -0.78125 L 3.703125 -8.828125 L 1.046875 -8.828125 L 1.046875 -7.28125 L 0.15625 -7.28125 L 0.15625 -9.71875 L 9.78125 -9.71875 L 9.78125 -7.28125 L 8.90625 -7.28125 L 8.90625 -8.828125 L 6.21875 -8.828125 L 6.21875 -0.78125 L 7.515625 -0.78125 L 7.515625 0 Z "/>
</symbol>
<symbol overflow="visible" id="glyph0-2">
<path style="stroke:none;" d="M 5.34375 -3.90625 C 5.34375 -4.8125 5.253906 -5.445312 5.078125 -5.8125 C 4.910156 -6.1875 4.625 -6.375 4.21875 -6.375 C 3.820312 -6.375 3.539062 -6.191406 3.375 -5.828125 C 3.207031 -5.472656 3.125 -4.867188 3.125 -4.015625 L 3.125 -3.90625 Z M 7.875 -3.125 L 3.125 -3.125 L 3.125 -3.078125 C 3.125 -2.179688 3.253906 -1.535156 3.515625 -1.140625 C 3.785156 -0.742188 4.222656 -0.546875 4.828125 -0.546875 C 5.328125 -0.546875 5.726562 -0.675781 6.03125 -0.9375 C 6.34375 -1.207031 6.539062 -1.59375 6.625 -2.09375 L 7.703125 -2.09375 C 7.515625 -1.3125 7.144531 -0.734375 6.59375 -0.359375 C 6.039062 0.00390625 5.265625 0.1875 4.265625 0.1875 C 3.066406 0.1875 2.144531 -0.125 1.5 -0.75 C 0.863281 -1.382812 0.546875 -2.289062 0.546875 -3.46875 C 0.546875 -4.613281 0.875 -5.503906 1.53125 -6.140625 C 2.1875 -6.785156 3.097656 -7.109375 4.265625 -7.109375 C 5.410156 -7.109375 6.285156 -6.769531 6.890625 -6.09375 C 7.503906 -5.414062 7.832031 -4.425781 7.875 -3.125 Z "/>
</symbol>
<symbol overflow="visible" id="glyph0-3">
<path style="stroke:none;" d="M 4.671875 -4.40625 L 5.90625 -6.125 L 5.046875 -6.125 L 5.046875 -6.921875 L 7.75 -6.921875 L 7.75 -6.125 L 6.828125 -6.125 L 5.0625 -3.65625 L 7.125 -0.78125 L 8.03125 -0.78125 L 8.03125 0 L 3.640625 0 L 3.640625 -0.78125 L 4.53125 -0.78125 L 3.234375 -2.609375 L 1.921875 -0.78125 L 2.84375 -0.78125 L 2.84375 0 L 0 0 L 0 -0.78125 L 0.984375 -0.78125 L 2.828125 -3.375 L 0.84375 -6.125 L 0.0625 -6.125 L 0.0625 -6.921875 L 4.28125 -6.921875 L 4.28125 -6.125 L 3.453125 -6.125 Z "/>
</symbol>
<symbol overflow="visible" id="glyph0-4">
<path style="stroke:none;" d="M 1.328125 -6.125 L 0.3125 -6.125 L 0.3125 -6.921875 L 1.328125 -6.921875 L 1.328125 -9.0625 L 3.625 -9.0625 L 3.625 -6.921875 L 5.546875 -6.921875 L 5.546875 -6.125 L 3.625 -6.125 L 3.625 -1.890625 C 3.625 -1.285156 3.671875 -0.910156 3.765625 -0.765625 C 3.859375 -0.617188 4.03125 -0.546875 4.28125 -0.546875 C 4.5625 -0.546875 4.769531 -0.640625 4.90625 -0.828125 C 5.039062 -1.015625 5.113281 -1.300781 5.125 -1.6875 L 6.09375 -1.6875 C 6.050781 -1 5.859375 -0.515625 5.515625 -0.234375 C 5.179688 0.046875 4.597656 0.1875 3.765625 0.1875 C 2.816406 0.1875 2.171875 0.0390625 1.828125 -0.25 C 1.492188 -0.550781 1.328125 -1.097656 1.328125 -1.890625 Z "/>
</symbol>
<symbol overflow="visible" id="glyph0-5">
<path style="stroke:none;" d=""/>
</symbol>
<symbol overflow="visible" id="glyph0-6">
<path style="stroke:none;" d="M 4.453125 -0.546875 C 4.941406 -0.546875 5.28125 -0.753906 5.46875 -1.171875 C 5.664062 -1.585938 5.765625 -2.351562 5.765625 -3.46875 C 5.765625 -4.570312 5.664062 -5.332031 5.46875 -5.75 C 5.28125 -6.164062 4.941406 -6.375 4.453125 -6.375 C 3.960938 -6.375 3.617188 -6.160156 3.421875 -5.734375 C 3.222656 -5.316406 3.125 -4.5625 3.125 -3.46875 C 3.125 -2.363281 3.222656 -1.597656 3.421875 -1.171875 C 3.617188 -0.753906 3.960938 -0.546875 4.453125 -0.546875 Z M 4.453125 0.1875 C 3.234375 0.1875 2.273438 -0.132812 1.578125 -0.78125 C 0.890625 -1.425781 0.546875 -2.320312 0.546875 -3.46875 C 0.546875 -4.601562 0.890625 -5.492188 1.578125 -6.140625 C 2.273438 -6.785156 3.234375 -7.109375 4.453125 -7.109375 C 5.671875 -7.109375 6.625 -6.785156 7.3125 -6.140625 C 8.007812 -5.492188 8.359375 -4.601562 8.359375 -3.46875 C 8.359375 -2.320312 8.007812 -1.425781 7.3125 -0.78125 C 6.625 -0.132812 5.671875 0.1875 4.453125 0.1875 Z "/>
</symbol>
<symbol overflow="visible" id="glyph0-7">
<path style="stroke:none;" d="M -0.109375 0 L -0.109375 -0.78125 L 0.6875 -0.78125 L 4.34375 -9.71875 L 5.90625 -9.71875 L 9.5625 -0.78125 L 10.484375 -0.78125 L 10.484375 0 L 5.9375 0 L 5.9375 -0.78125 L 6.890625 -0.78125 L 6.09375 -2.765625 L 2.4375 -2.765625 L 1.625 -0.78125 L 2.78125 -0.78125 L 2.78125 0 Z M 2.765625 -3.5625 L 5.765625 -3.5625 L 4.28125 -7.28125 Z "/>
</symbol>
<symbol overflow="visible" id="glyph0-8">
<path style="stroke:none;" d="M 0.453125 0 L 0.453125 -0.78125 L 1.4375 -0.78125 L 1.4375 -6.125 L 0.453125 -6.125 L 0.453125 -6.921875 L 3.734375 -6.921875 L 3.734375 -5.9375 C 4.015625 -6.351562 4.332031 -6.648438 4.6875 -6.828125 C 5.039062 -7.015625 5.492188 -7.109375 6.046875 -7.109375 C 6.816406 -7.109375 7.398438 -6.878906 7.796875 -6.421875 C 8.191406 -5.960938 8.390625 -5.289062 8.390625 -4.40625 L 8.390625 -0.78125 L 9.390625 -0.78125 L 9.390625 0 L 5.25 0 L 5.25 -0.78125 L 6.09375 -0.78125 L 6.09375 -4.46875 C 6.09375 -5.050781 6.015625 -5.457031 5.859375 -5.6875 C 5.710938 -5.914062 5.457031 -6.03125 5.09375 -6.03125 C 4.625 -6.03125 4.28125 -5.859375 4.0625 -5.515625 C 3.84375 -5.171875 3.734375 -4.628906 3.734375 -3.890625 L 3.734375 -0.78125 L 4.59375 -0.78125 L 4.59375 0 Z "/>
</symbol>
<symbol overflow="visible" id="glyph0-9">
<path style="stroke:none;" d="M 1.21875 -8.875 C 1.21875 -9.226562 1.335938 -9.523438 1.578125 -9.765625 C 1.828125 -10.003906 2.128906 -10.125 2.484375 -10.125 C 2.828125 -10.125 3.117188 -10.003906 3.359375 -9.765625 C 3.597656 -9.523438 3.71875 -9.226562 3.71875 -8.875 C 3.71875 -8.53125 3.597656 -8.238281 3.359375 -8 C 3.117188 -7.757812 2.828125 -7.640625 2.484375 -7.640625 C 2.128906 -7.640625 1.828125 -7.757812 1.578125 -8 C 1.335938 -8.238281 1.21875 -8.53125 1.21875 -8.875 Z M 3.734375 -0.78125 L 4.734375 -0.78125 L 4.734375 0 L 0.453125 0 L 0.453125 -0.78125 L 1.4375 -0.78125 L 1.4375 -6.125 L 0.453125 -6.125 L 0.453125 -6.921875 L 3.734375 -6.921875 Z "/>
</symbol>
<symbol overflow="visible" id="glyph0-10">
<path style="stroke:none;" d="M 8.09375 -5.78125 C 8.414062 -6.238281 8.757812 -6.570312 9.125 -6.78125 C 9.5 -7 9.9375 -7.109375 10.4375 -7.109375 C 11.226562 -7.109375 11.820312 -6.882812 12.21875 -6.4375 C 12.613281 -5.988281 12.8125 -5.3125 12.8125 -4.40625 L 12.8125 -0.78125 L 13.796875 -0.78125 L 13.796875 0 L 9.671875 0 L 9.671875 -0.78125 L 10.5 -0.78125 L 10.5 -4.046875 C 10.5 -4.910156 10.429688 -5.457031 10.296875 -5.6875 C 10.171875 -5.914062 9.925781 -6.03125 9.5625 -6.03125 C 9.15625 -6.03125 8.835938 -5.867188 8.609375 -5.546875 C 8.390625 -5.234375 8.28125 -4.785156 8.28125 -4.203125 L 8.28125 -0.78125 L 9.109375 -0.78125 L 9.109375 0 L 5.140625 0 L 5.140625 -0.78125 L 5.96875 -0.78125 L 5.96875 -4.046875 C 5.96875 -4.910156 5.898438 -5.457031 5.765625 -5.6875 C 5.640625 -5.914062 5.394531 -6.03125 5.03125 -6.03125 C 4.625 -6.03125 4.304688 -5.867188 4.078125 -5.546875 C 3.847656 -5.234375 3.734375 -4.785156 3.734375 -4.203125 L 3.734375 -0.78125 L 4.5625 -0.78125 L 4.5625 0 L 0.453125 0 L 0.453125 -0.78125 L 1.4375 -0.78125 L 1.4375 -6.125 L 0.453125 -6.125 L 0.453125 -6.921875 L 3.734375 -6.921875 L 3.734375 -5.9375 C 4.003906 -6.34375 4.3125 -6.640625 4.65625 -6.828125 C 5.007812 -7.015625 5.425781 -7.109375 5.90625 -7.109375 C 6.46875 -7.109375 6.921875 -7 7.265625 -6.78125 C 7.617188 -6.570312 7.894531 -6.238281 8.09375 -5.78125 Z "/>
</symbol>
<symbol overflow="visible" id="glyph0-11">
<path style="stroke:none;" d="M 7.34375 -4.25 L 7.34375 -0.78125 L 8.328125 -0.78125 L 8.328125 0 L 5.03125 0 L 5.03125 -0.875 C 4.726562 -0.507812 4.390625 -0.238281 4.015625 -0.0625 C 3.648438 0.101562 3.226562 0.1875 2.75 0.1875 C 2.039062 0.1875 1.492188 0 1.109375 -0.375 C 0.734375 -0.757812 0.546875 -1.304688 0.546875 -2.015625 C 0.546875 -2.785156 0.816406 -3.363281 1.359375 -3.75 C 1.910156 -4.132812 2.734375 -4.328125 3.828125 -4.328125 L 5.03125 -4.328125 L 5.03125 -4.75 C 5.03125 -5.300781 4.898438 -5.710938 4.640625 -5.984375 C 4.378906 -6.253906 3.96875 -6.390625 3.40625 -6.390625 C 2.945312 -6.390625 2.59375 -6.289062 2.34375 -6.09375 C 2.09375 -5.90625 1.914062 -5.597656 1.8125 -5.171875 L 1.078125 -5.171875 L 1.078125 -6.671875 C 1.492188 -6.816406 1.921875 -6.925781 2.359375 -7 C 2.804688 -7.070312 3.273438 -7.109375 3.765625 -7.109375 C 4.992188 -7.109375 5.894531 -6.878906 6.46875 -6.421875 C 7.050781 -5.960938 7.34375 -5.238281 7.34375 -4.25 Z M 5.03125 -2.171875 L 5.03125 -3.5625 L 4.171875 -3.5625 C 3.742188 -3.5625 3.414062 -3.441406 3.1875 -3.203125 C 2.957031 -2.972656 2.84375 -2.640625 2.84375 -2.203125 C 2.84375 -1.765625 2.925781 -1.4375 3.09375 -1.21875 C 3.257812 -1 3.515625 -0.890625 3.859375 -0.890625 C 4.210938 -0.890625 4.492188 -1.003906 4.703125 -1.234375 C 4.921875 -1.472656 5.03125 -1.785156 5.03125 -2.171875 Z "/>
</symbol>
<symbol overflow="visible" id="glyph0-12">
<path style="stroke:none;" d="M 5.71875 -3.125 L 5.71875 -3.796875 C 5.71875 -4.609375 5.613281 -5.191406 5.40625 -5.546875 C 5.195312 -5.910156 4.863281 -6.09375 4.40625 -6.09375 C 3.9375 -6.09375 3.601562 -5.898438 3.40625 -5.515625 C 3.21875 -5.140625 3.125 -4.457031 3.125 -3.46875 C 3.125 -2.46875 3.21875 -1.773438 3.40625 -1.390625 C 3.601562 -1.015625 3.9375 -0.828125 4.40625 -0.828125 C 4.863281 -0.828125 5.195312 -1.003906 5.40625 -1.359375 C 5.613281 -1.722656 5.71875 -2.3125 5.71875 -3.125 Z M 8.03125 -0.78125 L 9 -0.78125 L 9 0 L 5.71875 0 L 5.71875 -0.875 C 5.519531 -0.519531 5.253906 -0.253906 4.921875 -0.078125 C 4.597656 0.0976562 4.191406 0.1875 3.703125 0.1875 C 2.722656 0.1875 1.953125 -0.132812 1.390625 -0.78125 C 0.828125 -1.4375 0.546875 -2.332031 0.546875 -3.46875 C 0.546875 -4.601562 0.828125 -5.492188 1.390625 -6.140625 C 1.953125 -6.785156 2.722656 -7.109375 3.703125 -7.109375 C 4.191406 -7.109375 4.597656 -7.019531 4.921875 -6.84375 C 5.253906 -6.664062 5.519531 -6.398438 5.71875 -6.046875 L 5.71875 -9.34375 L 4.734375 -9.34375 L 4.734375 -10.125 L 8.03125 -10.125 Z "/>
</symbol>
<symbol overflow="visible" id="glyph0-13">
<path style="stroke:none;" d="M 1.6875 -8.921875 L 0.453125 -8.921875 L 0.453125 -9.71875 L 5.453125 -9.71875 L 5.453125 -8.921875 L 4.203125 -8.921875 L 4.203125 -4.0625 C 4.203125 -2.851562 4.390625 -2.003906 4.765625 -1.515625 C 5.148438 -1.035156 5.800781 -0.796875 6.71875 -0.796875 C 7.613281 -0.796875 8.25 -1.039062 8.625 -1.53125 C 9 -2.019531 9.1875 -2.863281 9.1875 -4.0625 L 9.1875 -8.921875 L 7.953125 -8.921875 L 7.953125 -9.71875 L 11.328125 -9.71875 L 11.328125 -8.921875 L 10.09375 -8.921875 L 10.09375 -3.9375 C 10.09375 -2.445312 9.769531 -1.382812 9.125 -0.75 C 8.476562 -0.125 7.398438 0.1875 5.890625 0.1875 C 4.378906 0.1875 3.300781 -0.128906 2.65625 -0.765625 C 2.007812 -1.398438 1.6875 -2.457031 1.6875 -3.9375 Z "/>
</symbol>
<symbol overflow="visible" id="glyph0-14">
<path style="stroke:none;" d="M 0.625 0 L 0.625 -0.78125 L 1.875 -0.78125 L 1.875 -8.921875 L 0.625 -8.921875 L 0.625 -9.71875 L 5.625 -9.71875 L 5.625 -8.921875 L 4.375 -8.921875 L 4.375 -0.78125 L 5.625 -0.78125 L 5.625 0 Z "/>
</symbol>
</g>
</defs>
<g id="surface12">
<g style="fill:rgb(13.333333%,82.745098%,93.333333%);fill-opacity:1;">
  <use xlink:href="#glyph0-1" x="30" y="32.519531"/>
  <use xlink:href="#glyph0-2" x="38" y="32.519531"/>
  <use xlink:href="#glyph0-3" x="46" y="32.519531"/>
  <use xlink:href="#glyph0-4" x="54" y="32.519531"/>
  <use xlink:href="#glyph0-5" x="60" y="32.519531"/>
  <use xlink:href="#glyph0-4" x="65" y="32.519531"/>
  <use xlink:href="#glyph0-6" x="71" y="32.519531"/>
  <use xlink:href="#glyph0-5" x="80" y="32.519531"/>
  <use xlink:href="#glyph0-7" x="85" y="32.519531"/>
  <use xlink:href="#glyph0-8" x="95" y="32.519531"/>
  <use xlink:href="#glyph0-9" x="105" y="32.519531"/>
  <use xlink:href="#glyph0-10" x="110" y="32.519531"/>
  <use xlink:href="#glyph0-11" x="124" y="32.519531"/>
  <use xlink:href="#glyph0-4" x="133" y="32.519531"/>
  <use xlink:href="#glyph0-2" x="139" y="32.519531"/>
  <use xlink:href="#glyph0-12" x="147" y="32.519531"/>
  <use xlink:href="#glyph0-5" x="156" y="32.519531"/>
  <use xlink:href="#glyph0-13" x="161" y="32.519531"/>
  <use xlink:href="#glyph0-14" x="173" y="32.519531"/>
</g>
</g>
</svg>
